<svg xmlns="http://www.w3.org/2000/svg"><symbol id="icon-dribbble" viewBox="0 0 384 384"><path d="M192 360c-92.6 0-168-75.4-168-168S99.4 24 192 24s168 75.4 168 168-75.4 168-168 168zm0-320c-83.8 0-152 68.2-152 152s68.2 152 152 152 152-68.2 152-152S275.8 40 192 40z"/><path d="M255.7 335.3C251.4 205 197.6 95 118.7 55.1l7.2-14.3c84.1 42.5 141.3 157.9 145.8 294z"/><path d="M72 192a368.6 368.6 0 0 1-40.6-2.2l1.8-15.9A350.2 350.2 0 0 0 72 176c93.8 0 179.8-37 230.1-98.9l12.4 10.1C261.2 152.8 170.6 192 72 192zm31.7 132.6l-13.8-8C135.7 237.4 205 192 280 192a185.9 185.9 0 0 1 73.6 15.3l-6.3 14.7a170.1 170.1 0 0 0-67.3-14c-69.2 0-133.4 42.5-176.3 116.6z"/></symbol></svg>