<svg xmlns="http://www.w3.org/2000/svg"><symbol id="icon-dribbble" viewBox="0 0 384 384"><path d="M192 360c-92.6 0-168-75.4-168-168S99.4 24 192 24s168 75.4 168 168-75.4 168-168 168zm0-320c-83.8 0-152 68.2-152 152s68.2 152 152 152 152-68.2 152-152S275.8 40 192 40z"/><path d="M255.7 335.3C251.4 205 197.6 95 118.7 55.1l7.2-14.3c84.1 42.5 141.3 157.9 145.8 294z"/><path d="M72 192a368.6 368.6 0 0 1-40.6-2.2l1.8-15.9A350.2 350.2 0 0 0 72 176c93.8 0 179.8-37 230.1-98.9l12.4 10.1C261.2 152.8 170.6 192 72 192zm31.7 132.6l-13.8-8C135.7 237.4 205 192 280 192a185.9 185.9 0 0 1 73.6 15.3l-6.3 14.7a170.1 170.1 0 0 0-67.3-14c-69.2 0-133.4 42.5-176.3 116.6z"/></symbol><symbol id="icon-shopping-cart" viewBox="0 0 384 384"><path d="M312 376c-22.1 0-40-17.9-40-40s17.9-40 40-40 40 17.9 40 40-17.9 40-40 40zm0-64c-13.2 0-24 10.8-24 24s10.8 24 24 24 24-10.8 24-24-10.8-24-24-24zm-192 64c-22.1 0-40-17.9-40-40s17.9-40 40-40 40 17.9 40 40-17.9 40-40 40zm0-64c-13.2 0-24 10.8-24 24s10.8 24 24 24 24-10.8 24-24-10.8-24-24-24z"/><path d="M98.1 308.4L55.1 24H0V8h68.9l45 298z"/><path d="M332.2 272H99.5v-16h219.8l32.8-152h-278V88h297.8zM152 328h128v16H152z"/></symbol><symbol id="icon-visible" viewBox="0 0 384 384"><path d="M192 272c-44.1 0-80-35.9-80-80s35.9-80 80-80 80 35.9 80 80-35.9 80-80 80zm0-144c-35.3 0-64 28.7-64 64s28.7 64 64 64 64-28.7 64-64-28.7-64-64-64z"/><path d="M192 312c-73.3 0-140.8-42.2-185.1-115.9L4.5 192l2.5-4.1C51.2 114.2 118.7 72 192 72s140.8 42.2 185.1 115.9l2.5 4.1-2.5 4.1C332.8 269.8 265.3 312 192 312zM23.2 192C64.5 258.2 125.8 296 192 296s127.5-37.8 168.8-104C319.5 125.8 258.2 88 192 88S64.5 125.8 23.2 192z"/></symbol></svg>