<svg xmlns="http://www.w3.org/2000/svg" viewBox="0 0 209.19 60"><defs><style>.cls-1{fill:#fdd66f}</style></defs><title>Ресурс 2</title><g id="Слой_2" data-name="Слой 2"><g id="Слой_1-2" data-name="Слой 1"><path class="cls-1" d="M16.1 51.31h2.51l.9 4.78 1.32-4.78h2.5l1.33 4.78.9-4.78h2.5l-1.88 8.55h-2.59l-1.5-5.38-1.49 5.38H18zm12.82 0H36v1.82h-4.44v1.36h4.11v1.74h-4.11v1.68h4.56v1.94h-7.2zm8.63 0h4.94a2.7 2.7 0 0 1 1.9.61 2 2 0 0 1 .66 1.52 1.91 1.91 0 0 1-.47 1.3 2.11 2.11 0 0 1-.92.57 2.4 2.4 0 0 1 1.36.76 2.09 2.09 0 0 1 .43 1.36 2.33 2.33 0 0 1-.31 1.2 2.28 2.28 0 0 1-.85.84 2.8 2.8 0 0 1-1 .28 11.54 11.54 0 0 1-1.18.12h-4.56zm2.66 3.35h1.15a1.32 1.32 0 0 0 .86-.21.78.78 0 0 0 .24-.62.73.73 0 0 0-.24-.58 1.3 1.3 0 0 0-.84-.21h-1.17zm0 3.36h1.35a1.48 1.48 0 0 0 1-.24.81.81 0 0 0 .28-.65.75.75 0 0 0-.28-.61 1.55 1.55 0 0 0-1-.23h-1.35zm10.64-6.71h3.92a4.7 4.7 0 0 1 1.87.31 3.05 3.05 0 0 1 1.18.9 3.74 3.74 0 0 1 .68 1.37 6.35 6.35 0 0 1 .21 1.66 5.75 5.75 0 0 1-.31 2.13 3.52 3.52 0 0 1-.87 1.27 2.82 2.82 0 0 1-1.19.68 6.13 6.13 0 0 1-1.57.23h-3.92zm2.64 1.94v4.67h.65a2.72 2.72 0 0 0 1.18-.18 1.24 1.24 0 0 0 .55-.64 4 4 0 0 0 .2-1.48 2.88 2.88 0 0 0-.44-1.86 1.87 1.87 0 0 0-1.47-.5zm6.6-1.94h7.08v1.82h-4.43v1.36h4.11v1.74h-4.11v1.68h4.56v1.94h-7.21zM68.26 57l2.51-.16a1.92 1.92 0 0 0 .33.93 1.4 1.4 0 0 0 1.17.52 1.29 1.29 0 0 0 .87-.27.8.8 0 0 0 .31-.62.78.78 0 0 0-.29-.6 3.38 3.38 0 0 0-1.35-.5 5.74 5.74 0 0 1-2.48-1 2.09 2.09 0 0 1-.75-1.65 2.24 2.24 0 0 1 .42-1.23 2.53 2.53 0 0 1 1.15-.92 5.36 5.36 0 0 1 2.1-.34 4.3 4.3 0 0 1 2.5.61 2.63 2.63 0 0 1 1 1.94l-2.49.15A1.16 1.16 0 0 0 72 52.75a1.06 1.06 0 0 0-.69.2.6.6 0 0 0-.23.48.48.48 0 0 0 .19.37 2.16 2.16 0 0 0 .89.32 11.11 11.11 0 0 1 2.48.75 2.61 2.61 0 0 1 1.09.95 2.4 2.4 0 0 1 .27 1.25 2.71 2.71 0 0 1-.46 1.52 2.84 2.84 0 0 1-1.27 1.05 5.13 5.13 0 0 1-2.06.36 4.24 4.24 0 0 1-3-.84 3.31 3.31 0 0 1-.95-2.16zm9.19-5.69h2.65v8.55h-2.65zm8.84 5.45V55h4.08v3.64a8.36 8.36 0 0 1-2.07 1.09 7 7 0 0 1-2.14.29 5.19 5.19 0 0 1-2.48-.52 3.55 3.55 0 0 1-1.49-1.54 5.08 5.08 0 0 1-.53-2.36 4.92 4.92 0 0 1 .58-2.43 3.74 3.74 0 0 1 1.69-1.57 5.5 5.5 0 0 1 2.34-.41 6.57 6.57 0 0 1 2.12.26 2.76 2.76 0 0 1 1.17.8 3.53 3.53 0 0 1 .7 1.37L87.7 54a1.38 1.38 0 0 0-.53-.74 1.67 1.67 0 0 0-1-.26 1.73 1.73 0 0 0-1.38.6 2.9 2.9 0 0 0-.52 1.91 3 3 0 0 0 .52 2 1.83 1.83 0 0 0 1.45.59 2.77 2.77 0 0 0 .85-.13 4.57 4.57 0 0 0 .92-.44v-.8zM92 51.31h2.47L97.64 56v-4.69h2.49v8.55h-2.49l-3.2-4.69v4.69H92zm20.61 4.39l1.85.41a6.79 6.79 0 0 1-.28.82 7.17 7.17 0 0 1-.38.73l.89.61.42.25-1.27 1.48q-.35-.19-.73-.43l-.67-.42a4.73 4.73 0 0 1-1.24.6 6.79 6.79 0 0 1-1.95.26 3.85 3.85 0 0 1-2.54-.71 2.19 2.19 0 0 1-.83-1.73 2.25 2.25 0 0 1 .49-1.38 3.68 3.68 0 0 1 1.6-1.1 4.17 4.17 0 0 1-.64-1 2.17 2.17 0 0 1-.18-.85 1.88 1.88 0 0 1 .69-1.5 3.19 3.19 0 0 1 2.1-.59 3.29 3.29 0 0 1 2.12.56 1.69 1.69 0 0 1 .68 1.34 1.82 1.82 0 0 1-.21.84 2.13 2.13 0 0 1-.5.65 11.52 11.52 0 0 1-1 .75 15.18 15.18 0 0 0 1.3 1.16 5.31 5.31 0 0 0 .28-.75zm-3.57.58a2.55 2.55 0 0 0-.65.59.93.93 0 0 0-.16.52 1 1 0 0 0 .37.76 1.37 1.37 0 0 0 1 .33A2.77 2.77 0 0 0 111 58q-.78-.61-2-1.73zm.85-2.08a2.49 2.49 0 0 0 .71-.55.88.88 0 0 0 .25-.56.6.6 0 0 0-.21-.46 1 1 0 0 0-1.17 0 .65.65 0 0 0-.23.5 1.93 1.93 0 0 0 .64 1.07zm10.6-2.89h3.92a4.7 4.7 0 0 1 1.87.31 3.05 3.05 0 0 1 1.18.9 3.74 3.74 0 0 1 .68 1.37 6.35 6.35 0 0 1 .21 1.66 5.74 5.74 0 0 1-.31 2.13 3.52 3.52 0 0 1-.87 1.27 2.83 2.83 0 0 1-1.19.68 6.13 6.13 0 0 1-1.57.23h-3.92zm2.64 1.94v4.67h.65a2.72 2.72 0 0 0 1.18-.18 1.24 1.24 0 0 0 .55-.64 4 4 0 0 0 .2-1.48 2.88 2.88 0 0 0-.44-1.86 1.87 1.87 0 0 0-1.47-.5zm6.61-1.94h7.08v1.82h-4.43v1.36h4.11v1.74h-4.11v1.68h4.56v1.94h-7.21zm7.79 0h2.76l1.92 6.15 1.9-6.15h2.68l-3.17 8.55h-2.86zm10.12 0h7.08v1.82h-4.43v1.36h4.11v1.74h-4.11v1.68h4.56v1.94h-7.21zm8.63 0h2.64v6.44H163v2.1h-6.76zm7.42 4.28a4 4 0 0 1 4.41-4.42 4.47 4.47 0 0 1 3.29 1.15 4.32 4.32 0 0 1 1.15 3.21 5.26 5.26 0 0 1-.5 2.46 3.59 3.59 0 0 1-1.46 1.49 4.81 4.81 0 0 1-2.38.53 5.46 5.46 0 0 1-2.39-.46 3.6 3.6 0 0 1-1.54-1.46 4.84 4.84 0 0 1-.58-2.5zm2.64 0a2.87 2.87 0 0 0 .48 1.86 1.82 1.82 0 0 0 2.63 0 3.16 3.16 0 0 0 .47-2 2.64 2.64 0 0 0-.49-1.76 1.66 1.66 0 0 0-1.32-.56 1.6 1.6 0 0 0-1.28.57 2.87 2.87 0 0 0-.49 1.9zm7.66-4.28h4.39a3 3 0 0 1 2.15.68 2.56 2.56 0 0 1 .71 1.94 2.63 2.63 0 0 1-.78 2 3.37 3.37 0 0 1-2.38.73h-1.45v3.17H174zm2.62 3.69h.65a1.67 1.67 0 0 0 1.07-.27.85.85 0 0 0 .31-.68 1 1 0 0 0-.27-.68 1.39 1.39 0 0 0-1-.28h-.75zm5.98-3.69h7.08v1.82h-4.43v1.36h4.11v1.74h-4.11v1.68h4.56v1.94h-7.21zm8.66 8.54v-8.54h4.4a6.41 6.41 0 0 1 1.87.21 2 2 0 0 1 1 .78 2.41 2.41 0 0 1-.74 3.45 3.18 3.18 0 0 1-.93.34 2.67 2.67 0 0 1 .69.32 2.7 2.7 0 0 1 .42.45 3.36 3.36 0 0 1 .37.53l1.28 2.48h-3l-1.41-2.61a2 2 0 0 0-.48-.66 1.11 1.11 0 0 0-.65-.2h-.23v3.47zm2.65-5.08H195a4 4 0 0 0 .7-.12.7.7 0 0 0 .43-.27.87.87 0 0 0-.1-1.13 1.59 1.59 0 0 0-1-.22h-1.16zM38.07 44.7h139.64v.47H38.07zM7.91 12.06l1.09.09q.51 0 1 .13a8.63 8.63 0 0 1 2.08.51 14.36 14.36 0 0 1 2 1 .82.82 0 0 0 .27 0 1 1 0 0 0 .31 0l.34-.09 2.35-1q.8-.35 1.62-.64a17.56 17.56 0 0 1 1.75-.51 8.51 8.51 0 0 1 1.77-.22 6.77 6.77 0 0 1 1.33.13l.67.24a.62.62 0 0 1 .4.33q.27.09.27.31v.27a.16.16 0 0 1-.18.18 1.07 1.07 0 0 1-.35-.13 7 7 0 0 0-1.37-.13 6.35 6.35 0 0 0-1.24.13l-.62.16-.67.16a11.76 11.76 0 0 0-2 .69l-2 .91a1.39 1.39 0 0 1-.33.16l-.42.16v.14a.35.35 0 0 0 0 .22c.15.15.27.26.36.33a1.32 1.32 0 0 1 .27.33 3.58 3.58 0 0 1 .39 2.43 1.93 1.93 0 0 1 0 .31c0 .09 0 .19-.07.31a9.11 9.11 0 0 1-.69 2A8.59 8.59 0 0 1 15 22.83a13.83 13.83 0 0 1-3.24 3q-.62.4-1.15.78t-1.15.78a17.83 17.83 0 0 1-2.42 1.24l-2.37 1H3.29a2.13 2.13 0 0 1-.49 0 2.28 2.28 0 0 1-1.11-.27 6.37 6.37 0 0 1-.93-.62 2.36 2.36 0 0 0-.27-.4 4.4 4.4 0 0 0-.31-.35 1.27 1.27 0 0 1-.22-1A.3.3 0 0 1 0 27a.31.31 0 0 0 0-.13l.2-.58q.11-.31.2-.53a8.25 8.25 0 0 1 .82-1.09l.91-1q.89-.89 1.75-1.71t1.82-1.61q.89-.75 1.8-1.46t1.75-1.33q.93-.71 1.86-1.37l1.82-1.29.18-.18h.09a.1.1 0 0 1-.2-.22.21.21 0 0 0-.16-.13q-.89-.18-1.71-.4a8.14 8.14 0 0 0-1.71-.27H7.51a12.73 12.73 0 0 1-1.73-.07 2.65 2.65 0 0 1-.8-.18 4.44 4.44 0 0 0-.67-.22A2 2 0 0 1 3 11.88l-.3-.38a.6.6 0 0 1-.16-.29 2.12 2.12 0 0 1-.09-1.11v-.44a4.93 4.93 0 0 0 .22-.51A6 6 0 0 1 3 8.56l.55-.71q.2-.27.51-.62l.49-.53 1-1a10.2 10.2 0 0 1 1-.89 10.33 10.33 0 0 0 1.14-.71l.89-.69 3.15-1.77a16.11 16.11 0 0 1 3.5-1.42q.49 0 .89-.11A5.44 5.44 0 0 1 17 0h.27l.33.09a.3.3 0 0 1 .24.18 5.77 5.77 0 0 1 .51.29 2.75 2.75 0 0 0 .47.24 5.19 5.19 0 0 1 .42.86 2.22 2.22 0 0 1 .11 1q-.27.75-.62 1.55a17.41 17.41 0 0 1-1.29 1.73l-1.26 1.24a7.38 7.38 0 0 1-1.4 1.06q-.31.27-.69.53a2.7 2.7 0 0 1-.91.4l-.69.07h-.6a.67.67 0 0 1-.67-.53v-.06a.22.22 0 0 0-.11-.27C11 8.32 11 8.25 11 8.16a.8.8 0 0 0 .33-.16.81.81 0 0 1 .31-.11l1.06-.27A12.36 12.36 0 0 0 15.12 6a13.86 13.86 0 0 0 1.8-2 8.78 8.78 0 0 0 .55-.8 2.58 2.58 0 0 0 .33-.89v-.13a.16.16 0 0 0-.13-.18h-.11a1.16 1.16 0 0 0-.29 0l-.91.29a7.79 7.79 0 0 0-1 .42l-1.49.58a11.32 11.32 0 0 0-1.52.71q-.36.27-.75.53t-.8.49l-.42.27a2.47 2.47 0 0 0-.38.31q-.84.62-1.62 1.26T6.85 8.2q-.31.27-.75.71a5.63 5.63 0 0 0-.71.84 1.85 1.85 0 0 0-.42.49 2.39 2.39 0 0 1-.38.49V11l-.09.16a.27.27 0 0 0 0 .16q0 .31.49.36l.49.11a2.36 2.36 0 0 0 .58.07 6.16 6.16 0 0 0 1 .11 7.49 7.49 0 0 1 .85.09zM2 27.35h.09v.53a10.43 10.43 0 0 0 1-.31l1-.35a7.36 7.36 0 0 0 1.51-.64 13.72 13.72 0 0 0 1.4-.91l1.13-.6 1.17-.64a3.58 3.58 0 0 0 .69-.49 8.08 8.08 0 0 1 .64-.53 7.11 7.11 0 0 0 1-.71 6.67 6.67 0 0 0 .73-.71 9.47 9.47 0 0 0 1.73-2 14.28 14.28 0 0 0 1.2-2.24 1 1 0 0 1 0-.29 1.22 1.22 0 0 0 0-.33 1.16 1.16 0 0 0 0-.38q0-.15-.07-.33a1.93 1.93 0 0 0 0-.31 1.23 1.23 0 0 0-.2-.4.26.26 0 0 0-.18-.09h-.22l-1.82 1.37a26.79 26.79 0 0 0-2.84 2l-2.54 2.34a26.56 26.56 0 0 0-2.11 1.88l-2 2a3 3 0 0 0-.53.69q-.18.33-.44.78a.93.93 0 0 0-.18.31 1.05 1.05 0 0 1-.16.36zM2.9 24v.09c0 .09 0 0 0 0V24zm0 0a.36.36 0 0 0 .27-.09l.18-.18h-.14a.19.19 0 0 0-.16.09zm.49-.4c.06-.06.09-.1.09-.13s-.09.03-.09.12zm.13-.44h.18v.18c.12 0 .19-.13.22-.31h-.09a.54.54 0 0 0-.31.11zM4 23a.74.74 0 0 0 .29-.07.34.34 0 0 0 .2-.24.54.54 0 0 0-.35.11c-.09.04-.14.11-.14.2zm1.33-1.2l-.53.13a.5.5 0 0 1-.18.27l-.18.13h.13v.31s.07 0 .13-.11a.45.45 0 0 0 .09-.29 2.3 2.3 0 0 0 .35-.24c.13-.09.2-.16.2-.22a1.1 1.1 0 0 0 .29-.16q.15-.11.16-.2a.48.48 0 0 0-.45.35zM5.7 7.36A28.11 28.11 0 0 1 8 5.45q1.2-.89 2.44-1.64a17.45 17.45 0 0 1 1.93-1.2 18.94 18.94 0 0 1 2-.93l.51-.16a1.87 1.87 0 0 0 .47-.2 3.91 3.91 0 0 0-1 .22 8.08 8.08 0 0 0-.84.35 18.87 18.87 0 0 0-3.48 1.8q-1.57 1-3 2.15-.36.36-.73.67a4.55 4.55 0 0 0-.6.58.72.72 0 0 1-.24.33.34.34 0 0 0-.16.29 1.35 1.35 0 0 0 .2-.16zm0-.62a.45.45 0 0 1 .16-.11s.1-.08.16-.2a.27.27 0 0 0-.28.31zm.13 14.45a.67.67 0 0 0-.09.27q.49-.31.49-.53a.3.3 0 0 1-.2.13.3.3 0 0 0-.16.13zM6 6.43a.49.49 0 0 0 .29-.2 2.53 2.53 0 0 0 .2-.33 1 1 0 0 0-.33.2.63.63 0 0 0-.16.33zm1.42 13.43l-.31.22h-.09l-.09.09h.09a.35.35 0 0 1 0 .13.34.34 0 0 0 0 .13l-.22.11a.86.86 0 0 0-.22.16.09.09 0 0 0 0-.07.09.09 0 0 1 0-.07v.13a.38.38 0 0 1-.13.27l.4-.18a.57.57 0 0 0 .27-.35.35.35 0 0 0 .31-.13 1.48 1.48 0 0 1 .13-.3q.09-.18.09-.13a.09.09 0 0 0-.07 0 .18.18 0 0 1-.16-.01zM7.6 5.1a4.35 4.35 0 0 1-.53.27.58.58 0 0 0-.31.44 1.38 1.38 0 0 0 .49-.29 2.74 2.74 0 0 0 .35-.38h.07c.07 0 .07 0 .07-.09zm1 13.7a.07.07 0 0 0-.07 0h-.16.27a.3.3 0 0 0-.09.22 1.35 1.35 0 0 0-.33.18 1.26 1.26 0 0 1-.38.18l-.09.31a1.84 1.84 0 0 0 .51-.27.93.93 0 0 0 .33-.4l.29-.24a2.27 2.27 0 0 0 .38-.38l-.33.16zm1-15.21L8 4.74q-.27.09-.27.27.53-.4 1-.73l1-.69.09-.09a1.22 1.22 0 0 1-.27.09zm-.4 1.77a30.57 30.57 0 0 1 2.92-1.86A23.57 23.57 0 0 1 15.27 2l.31-.18a2.33 2.33 0 0 1-.53 0 3.34 3.34 0 0 0-.64.27l-.69.35a14.44 14.44 0 0 0-2.64 1.4L8.62 5.59a.66.66 0 0 1-.16.18s-.07.06-.07.09l.42-.24a2.22 2.22 0 0 0 .39-.26zm1.86 11.57h-.13a.43.43 0 0 1-.16.11.1.1 0 0 0-.07.11c-.12 0-.19 0-.2.07a.1.1 0 0 1-.11.07h.31c0 .09-.1.18-.31.27h-.09s-.07 0-.13.13a.43.43 0 0 1-.27.18h-.39a.19.19 0 0 0-.16.09c0 .06-.08.09-.11.09h-.13.13a.34.34 0 0 0 0 .13.35.35 0 0 1 0 .13 1.85 1.85 0 0 0 1.11-.8h.22a5.22 5.22 0 0 1 .8-.49 1.32 1.32 0 0 0 .62-.58.62.62 0 0 0 .24 0 .7.7 0 0 0 .07-.2 9.39 9.39 0 0 1 .8-.53l.84-.49c.06 0 .09-.07.09-.22a.13.13 0 0 1-.03 0h-.13a.14.14 0 0 0-.16.11c0 .07 0 .11-.07.11h-.09a.18.18 0 0 0-.11 0l-.2.16h-.18v.16c0 .07 0 .07-.09.07l-.18.09-.09.22h.09a.18.18 0 0 1-.09.18c-.06.12-.09.16-.09.13h-.09a.16.16 0 0 0-.18.18 1.52 1.52 0 0 1-.31.16 1.53 1.53 0 0 0-.4.24v-.09zm2.48 5.45a.28.28 0 0 1-.16.13.59.59 0 0 0-.2.13 11.34 11.34 0 0 1-1.77 1.51l-1.9 1.34a1.17 1.17 0 0 1-.24.16.2.2 0 0 0-.11.11h.2a.79.79 0 0 0 .24 0 15.39 15.39 0 0 0 1.75-1.13 8.56 8.56 0 0 0 1.57-1.53.8.8 0 0 0 .4-.27 1.73 1.73 0 0 0 .22-.44zm-.62 1.46a28.67 28.67 0 0 1-3 2.26v.18a.33.33 0 0 1 .13 0l.78-.49q.33-.22.73-.53a7 7 0 0 0 .84-.53q.35-.27.75-.62a.69.69 0 0 1 0-.18.38.38 0 0 1 .11-.18zM10.53 3.15a.31.31 0 0 0 .2-.11.82.82 0 0 0 .16-.2c-.11 0-.24.1-.36.31zm1.37 20.21a.5.5 0 0 0-.27.16 1 1 0 0 0-.27.38l.33-.22a.76.76 0 0 0 .21-.32zm.71-.44c-.21 0-.31.12-.31.35l.18-.18zm.31-.4a.38.38 0 0 0-.31.4.38.38 0 0 0 .16-.18.83.83 0 0 1 .15-.22zm.49-14.63v.18a.27.27 0 0 0 .22-.07.48.48 0 0 1 .27-.16 6.26 6.26 0 0 0 .69-.4 1.88 1.88 0 0 0 .55-.58 5 5 0 0 1-.82.58q-.47.23-.91.45zm1.15 0a.51.51 0 0 0-.38.16 1.6 1.6 0 0 1-.42.29.85.85 0 0 0 .8-.45zM15 6.61zm.09.22l.29-.09a.18.18 0 0 0 .16-.18.74.74 0 0 0-.22 0 .72.72 0 0 1-.22 0zm.18 7.4v.09-.09l1.46-.53a1.78 1.78 0 0 1 .51-.31 1 1 0 0 0 .42-.31h.22a1 1 0 0 0 .44-.09 2 2 0 0 0 .42-.13.49.49 0 0 0 .24-.18h-.18a.36.36 0 0 0-.27.09l-.22.22h-.18a1.39 1.39 0 0 0-.53.13 2.48 2.48 0 0 0-.51.2 1.55 1.55 0 0 1-.38.16h-.09a.1.1 0 0 0-.11.09.11.11 0 0 1-.11.09.09.09 0 0 0 0-.07.09.09 0 0 1 0-.07h-.09s0 .07-.09.13a.46.46 0 0 1-.27 0h-.07l-.07.09v.13a.69.69 0 0 1-.18.13 1.37 1.37 0 0 1-.31.09s.05.14 0 .14zm.44.31h.18a.63.63 0 0 0 .42-.13l.33-.27a.85.85 0 0 0-.44.13zm2.08-1h-.09q-.22 0-.29.09a.47.47 0 0 1-.29.13h.22a.36.36 0 0 0 .27-.09zm.84-.31a.5.5 0 0 0-.22 0 .39.39 0 0 1-.18 0 .18.18 0 0 0 .13 0 .38.38 0 0 0 .33.03zm.71-.22l-.53.09a.18.18 0 0 1 .11 0 .09.09 0 0 0 .07 0 .48.48 0 0 0 .4-.1zm.22-.58h-.13a.4.4 0 0 0-.18 0 .28.28 0 0 0-.13.18.35.35 0 0 0 .29-.09.44.44 0 0 1 .21-.06zm.27.36h-.13q-.31 0-.35.22a.77.77 0 0 0 .22-.09zm.27-.4a.68.68 0 0 0-.27-.09.53.53 0 0 0-.27.13 2.37 2.37 0 0 0 .59-.02zm.22.27c-.18 0-.28 0-.31.09a1 1 0 0 0 .36-.07zm.13-.53h-.18c-.06 0-.12.1-.18.24zm.27.4a.18.18 0 0 0-.13 0 .28.28 0 0 0-.27.18h.13q.27-.03.32-.16zm.09-.49a.35.35 0 0 1-.16 0 .36.36 0 0 0-.16 0 .43.43 0 0 0 .37.02z"/><path class="cls-1" d="M34.29 13.17c.09 0 .12 0 .09.13a.18.18 0 0 1 0 .13h.18a.08.08 0 0 1 .09.09 1.19 1.19 0 0 1-.22.31q-.75 1.06-1.62 2.08T31.19 18l-.86 1.11a6.23 6.23 0 0 1-1 1l-.67.78a6.56 6.56 0 0 1-.71.73q-.66.66-1.22 1.15t-1.26 1a3 3 0 0 1-.6.44l-.73.44a1.15 1.15 0 0 1-.42.09h-.82a.79.79 0 0 1-.36-.09.69.69 0 0 0-.35-.07.7.7 0 0 1-.35-.07 3.13 3.13 0 0 0-.44-.22 2.7 2.7 0 0 1-1.33-1.6 7 7 0 0 1 0-.78 6.92 6.92 0 0 0 0-.78v-.53a2.18 2.18 0 0 1 0-.53 7.51 7.51 0 0 1 .27-1.6 4.43 4.43 0 0 1 .24-.71q.15-.35.29-.71a5.11 5.11 0 0 1 .22-.62 3.33 3.33 0 0 1 .35-.62 4.71 4.71 0 0 0 .38-.62 3 3 0 0 1 .38-.58 3.94 3.94 0 0 1 .4-.58q.22-.27.44-.58a.58.58 0 0 1 .11-.16l.16-.16q.22-.27.4-.51a3.92 3.92 0 0 1 .4-.47 4.89 4.89 0 0 1 .73-.53q.38-.22.73-.4a2.16 2.16 0 0 1 .89-.18h.4a.91.91 0 0 0 .36 0 1.33 1.33 0 0 1 1 .58 2.19 2.19 0 0 1 .35 1q-.13.49-.24 1a5.25 5.25 0 0 1-.33 1 5 5 0 0 1-.55.93q-.33.44-.64.89A6.71 6.71 0 0 1 25 17.78a3.49 3.49 0 0 1-1 .22 2.47 2.47 0 0 1-.58.09.36.36 0 0 1-.16 0s-.07 0-.07.09l-.31.75a5 5 0 0 0-.13.58c0 .18-.06.37-.09.58a1.1 1.1 0 0 0-.13.31q0 .58-.07 1.13a9.64 9.64 0 0 0 0 1.13 1 1 0 0 0 .13.22.26.26 0 0 1 0 .18c.06.12.12.18.18.18a.26.26 0 0 0 .18 0 1.94 1.94 0 0 1 .64-.27 1.53 1.53 0 0 0 .55-.22 7.71 7.71 0 0 1 1.06-.89 5.94 5.94 0 0 0 1-.89q.4-.4.78-.73t.78-.73l.93-1a7.41 7.41 0 0 0 .8-1l.62-.55a6.18 6.18 0 0 0 .53-.55q.35-.49.78-1t.91-1a2.8 2.8 0 0 0 .62-.64 1.88 1.88 0 0 1 .58-.55c0-.09.06-.13.09-.13s.12-.09.27-.09.22.06.22.18zm-12.63 3.72V17a.13.13 0 0 0 0-.09zm.09-.09a1 1 0 0 0 .31-.62.59.59 0 0 0-.22.27 2.92 2.92 0 0 0-.1.35zm3.64-4.61l-.89.8-.53.71q-.27.36-.49.71-.36.53-.73 1.13a8.74 8.74 0 0 0-.64 1.22V17a1.1 1.1 0 0 1 .27-.49 16.14 16.14 0 0 1 2.84-3.95zm-3.33 3.95a.2.2 0 0 0 .13-.22.21.21 0 0 0-.14.22zm.13-.22c.06 0 .09-.05.09-.07v-.2a.18.18 0 0 0 0 .13.14.14 0 0 0-.09.14zm2-3a14 14 0 0 0-.91 1.2q-.42.62-.82 1.24c-.06.06-.08.11-.07.16s0 .1-.07.16a1.87 1.87 0 0 0 .18-.27l.84-1.2a10.34 10.34 0 0 1 .89-1.11l.18-.31c-.06.06-.1.09-.13.09a.13.13 0 0 0-.1.02zm2.88.18a.61.61 0 0 1 0-.27.63.63 0 0 0 0-.27.52.52 0 0 0-.38.11 2.76 2.76 0 0 1-.29.24 8.69 8.69 0 0 0-1.29 1.6 6.21 6.21 0 0 0-.53.8q-.22.4-.44.75l-.4.62a.82.82 0 0 0 0 .27c0 .06.06.09.18.09l.27-.09.53-.29a1.85 1.85 0 0 0 .49-.42 5.36 5.36 0 0 0 1.91-3zm-2.62 1.2a.13.13 0 0 0 0-.09zm.22-1.73c-.06 0-.09.06-.09.09zm.09 1.37a6.42 6.42 0 0 1 .6-.69l.69-.69v-.09l-.31.18a4.3 4.3 0 0 0-.64.6 5.53 5.53 0 0 0-.47.64v.22a.07.07 0 0 1 0-.07.07.07 0 0 0 .13-.12zm1.11 9q.13-.13.13-.18zm.13-6.76c.12-.06.18-.13.18-.22a.21.21 0 0 0-.18.22zm.35 6.3a.28.28 0 0 0-.22.18zm0-7.09q-.13.13-.13.09l.13.13a.78.78 0 0 0-.22.36 1.57 1.57 0 0 0 .58-.71l-.22.13v-.09a.08.08 0 0 1-.09.08zm-.22 6.56c.12 0 .18 0 .18-.13s-.13.07-.13.13zm0-5.54a.41.41 0 0 0 .31-.27q-.13 0-.22.26zm.13 6.07a.08.08 0 0 0 .09-.09c.03-.04 0 0 0 .09zm0-.71c.33-.09.49-.21.49-.36a.57.57 0 0 0-.22.13zm0 .58c.09 0 .13-.06.13-.18zm.09-6.21a.26.26 0 0 0 0-.18.26.26 0 0 0 .18.18zm0 6q.27 0 .27-.18a.51.51 0 0 0-.04.21zm.18-6.38c-.09 0-.13.07-.13.13zm.09-.8c-.06 0-.09.1-.09.22a.3.3 0 0 0 .31-.18zm.09-.13s0 .07-.09.13l.09-.09zm0 6.56c.12 0 .18 0 .18-.13a.12.12 0 0 0 0 .15zm0 .58a.28.28 0 0 0 .22-.18.28.28 0 0 1-.11.07.2.2 0 0 0 .07.14zm.18-.71a.2.2 0 0 0 .13-.22s.1.09.04.24zm0 .49a.69.69 0 0 0 .18-.13c.1.02.04.06.04.15zm5.54-6.92a.53.53 0 0 1-.27.31c-.06 0-.09.07-.09.11a.24.24 0 0 1-.09.16q-.58.62-1.06 1.24t-1.06 1.24q-.66.75-1.35 1.44t-1.31 1.44a.33.33 0 0 1-.11.13.33.33 0 0 0-.11.13.93.93 0 0 0 .4-.27q.97-.76 1.62-1.47l1.44-1.55 1.6-2q.8-1 1.6-1.91l.22-.27a.69.69 0 0 0-.4.35zm-5.36 6.78a.12.12 0 0 0 .13-.13.12.12 0 0 0 .09.16zM28.66 20l-.58.67a6.1 6.1 0 0 1-.62.62.2.2 0 0 1 0 .09.2.2 0 0 0 0 .09.13.13 0 0 1 .09 0s.07 0 .13-.09a3.74 3.74 0 0 1 .51-.58 4.59 4.59 0 0 0 .47-.49.51.51 0 0 1 .09-.13.18.18 0 0 0 0-.13zm.13 0a.24.24 0 0 0 .11-.09.35.35 0 0 1 .07-.09c-.12.03-.18.09-.18.18zm.27-.18v-.13a.12.12 0 0 0-.13.13zm0-.13a1.94 1.94 0 0 0 .71-.75 2.4 2.4 0 0 0-.67.74zm.71-.75h.09a.13.13 0 0 1 0-.09.12.12 0 0 0-.05.08zm.13-.13a1.13 1.13 0 0 0 .53-.58 1 1 0 0 0-.31.27zm.53-.58a1.31 1.31 0 0 0 .44-.58 1 1 0 0 0-.31.24.51.51 0 0 0-.08.33zm.44-.58a1.93 1.93 0 0 0 .44-.4.56.56 0 0 0-.39.4zm.44-.4a1 1 0 0 0 .31-.4q-.26.15-.26.4zm.31-.4a.46.46 0 0 0 .38-.45.51.51 0 0 0-.32.45zm.38-.45c.09 0 .16-.07.22-.22-.16.03-.22.11-.22.22zm.22-.22a1 1 0 0 0 .16-.2l.2-.29a.41.41 0 0 0-.27.22zm.35-.49c.06 0 .09-.06.09-.09v-.09c-.07.01-.1.07-.1.18zm.09-.18a.79.79 0 0 0 .22-.22.4.4 0 0 0-.23.23zm.22-.22a.56.56 0 0 0 .27-.27c-.12.06-.19.11-.2.16a.28.28 0 0 1-.08.12zm.27-.27l.09-.09v-.09zm.13-.22q.13 0 .13-.18c-.06 0-.09.06-.09.09a.13.13 0 0 1-.05.1zm.13-.18h.11a.63.63 0 0 1 .11-.13c-.15.02-.23.08-.23.14zm.22-.18a.24.24 0 0 0 .11-.09.51.51 0 0 1 .16-.13.4.4 0 0 0-.27.23zm.27-.84a.48.48 0 0 0 .18-.22zm0 .62A.36.36 0 0 0 34 14a45.68 45.68 0 0 0-.09.27zM34 14c.06 0 .09-.1.09-.22A.3.3 0 0 0 34 14zm.18-.22q.09 0 .18-.18c-.18.06-.27.12-.27.18z"/><path class="cls-1" d="M44.58 12.06c0 .21 0 .33-.09.36-.09.24-.22.35-.4.35H44a.71.71 0 0 0-.44-.18 1 1 0 0 0-.42.09 3.85 3.85 0 0 1-.51.18l-1.09.8-1.22.93-.84.67a8.61 8.61 0 0 0-.8.71 5.73 5.73 0 0 0-1 .86q-.56.6-1.13 1.26l-1.13 1.29q-.55.62-.91 1a5.54 5.54 0 0 0-.58.8q-.27.44-.62.93a.52.52 0 0 0-.29.22.84.84 0 0 1-.16.22.77.77 0 0 1-.31.13.12.12 0 0 1-.13-.13h-.22a.22.22 0 0 1-.18-.11c-.15-.06-.22-.12-.22-.18s-.13-.33-.4-.44a1.66 1.66 0 0 1-.11-.38 2.13 2.13 0 0 1 0-.51l.36-1.51c0-.12 0-.19.09-.22l.67-2.62q.58-2.26 1.24-4.43T35 7.71l.09-.09c.06-.15.11-.27.16-.35a.21.21 0 0 1 .2-.13l.18.09a.79.79 0 0 0 .4.27q.44.13.44.44a1.45 1.45 0 0 0-.09.44.66.66 0 0 1 0 .24.17.17 0 0 0 0 .2q-.93 3.06-1.68 6.07a13.74 13.74 0 0 0-.44 1.4q-.18.69-.36 1.44v.4a.13.13 0 0 0 0 .09h.27a.72.72 0 0 1 .2-.38 1.11 1.11 0 0 1 .38-.24 6 6 0 0 0 .45-.6l.64-.82q.35-.44.69-.8l.47-.49a8.34 8.34 0 0 1 1.06-1q.58-.44 1.06-.89l1.15-.84a9.93 9.93 0 0 1 1.33-.8 2.54 2.54 0 0 1 1.11-.31.47.47 0 0 1 .27 0l.51.09.42.09a.9.9 0 0 1 .38.29 4.29 4.29 0 0 1 .29.54zm-11.31 9a4.39 4.39 0 0 0 .47-.44 6 6 0 0 0 .42-.53l-.27.18-.71.75zm.27-1.06a.89.89 0 0 0 .44-.33q.18-.24.4-.51a1.32 1.32 0 0 0-.84.84zm.93-1.06a.13.13 0 0 1 0-.09zm.13.58c.12-.09.18-.15.18-.18s0 0-.09 0a.13.13 0 0 0-.09 0zm5.81 19.72a1.75 1.75 0 0 1-1.29-.8 2.77 2.77 0 0 1-.35-.53 1.86 1.86 0 0 0-.35-.49 2.13 2.13 0 0 1-.42-1.11 6.68 6.68 0 0 1 .07-1.2 10.19 10.19 0 0 1 .93-2.3.24.24 0 0 1 .11-.18.32.32 0 0 0 .11-.27 1.72 1.72 0 0 1 .29-.62l.42-.58a15.45 15.45 0 0 1 1-1.57q.56-.73 1.18-1.44a5.53 5.53 0 0 0 .33-.47l.29-.47 1.55-1.37a.45.45 0 0 1 .07-.11l.07-.11a2.2 2.2 0 0 1 .64-.64 3.91 3.91 0 0 0 .73-.64 16.73 16.73 0 0 1 1.31-1.11q.64-.49 1.35-1.06.49-.44 1-.84t1-.75l.33-.27a1.64 1.64 0 0 1 .33-.22 35.61 35.61 0 0 1 3.06-2.26l.84-.58q.4-.27.84-.62a.66.66 0 0 0 .22-.29l.18-.42a9.25 9.25 0 0 0 .2-1q.07-.51.2-1.13a.38.38 0 0 0 .13-.27.53.53 0 0 0 0-.38l-.18-.33q0-.4-.13-.44h-.4l-.75.18-1 .44a3.82 3.82 0 0 0-1 .67l-1.73 1.31q-.84.64-1.86 1.31a16.77 16.77 0 0 1-1.37 1.15 18.88 18.88 0 0 1-1.6 1.06l-1 .58h-.4a1.24 1.24 0 0 1-.62-.18 1.28 1.28 0 0 1-.49-.49l-.53-.67a2.79 2.79 0 0 1-.09-.93 4.3 4.3 0 0 0 .16-.47 4.2 4.2 0 0 1 .16-.47 1.83 1.83 0 0 0 .27-.8 1.56 1.56 0 0 1 .31-.8 8.37 8.37 0 0 1 1.26-1.91q.78-.89 1.62-1.73a8 8 0 0 1 1.15-.84 2.35 2.35 0 0 1 .49-.13 3 3 0 0 1 .49 0 1.74 1.74 0 0 1 1 .31 2.31 2.31 0 0 1 .55.33 2.26 2.26 0 0 1 .47.55.85.85 0 0 1 .2.4 2.59 2.59 0 0 1 0 .31c-.06.15-.13.22-.22.22l-.36-.35a2.78 2.78 0 0 0-.33-.29.72.72 0 0 0-.42-.11h-.09a.31.31 0 0 1-.13 0 .55.55 0 0 1-.24.13 1.67 1.67 0 0 0-.38.18 1 1 0 0 0-.47.4 4 4 0 0 1-.38.53 9.41 9.41 0 0 0-1.35 1.6 16.62 16.62 0 0 0-1.09 1.86 1 1 0 0 0-.24.38 1.54 1.54 0 0 1-.29.47 1.2 1.2 0 0 0-.11.29 1.23 1.23 0 0 1-.11.29v.09a.18.18 0 0 0 0 .13h.09a.39.39 0 0 0 .18 0l.53-.31a3.3 3.3 0 0 1 .58-.27 10.14 10.14 0 0 0 1.29-1q.58-.55 1.24-1.13t1.29-1q.66-.51 1.37-1a7.65 7.65 0 0 1 2.08-1.24 5.21 5.21 0 0 1 .58-.24 1.84 1.84 0 0 1 .62-.11.18.18 0 0 1 .11 0 .17.17 0 0 0 .11 0 2.31 2.31 0 0 1 1.77 1.06 1.58 1.58 0 0 1 .36.6 2.19 2.19 0 0 1 .13.73 3.87 3.87 0 0 1 .16.49 1.11 1.11 0 0 1 0 .49v.13a1.28 1.28 0 0 0 0 .67c0 .12 0 .18.09.18h.13l.78-.42.53-.29.51-.27.75-.35q.84-.35 1.64-.64a7 7 0 0 1 1.61-.45 6.05 6.05 0 0 0 .89 0h.35a.13.13 0 0 1 .09 0 .22.22 0 0 1 0 .11.36.36 0 0 0 0 .2 9.68 9.68 0 0 1-1 .62q-.62.36-1.31.71l-1.31.67-1 .49a3.51 3.51 0 0 0-.55.31l-.93.6q-.51.33-.91.62l-.44.33q-.22.09-.35.58a.66.66 0 0 0-.18.31 1.74 1.74 0 0 1-.13.35 14.64 14.64 0 0 1-.71 2.24q-.44 1.09-1 2.15a29.79 29.79 0 0 1-1.71 3.26q-1 1.57-2 3.17-.49.67-1 1.24t-1 1.2a12 12 0 0 1-1.18 1.42l-1.15 1.22q-1 .93-2 1.77a13.84 13.84 0 0 1-2.13 1.51 9.18 9.18 0 0 1-1 .64 4.24 4.24 0 0 1-1.29.42zm-.75-2.48a.63.63 0 0 0 0 .4c0 .06.16.09.33.09a2.36 2.36 0 0 1 .47-.13 2.44 2.44 0 0 0 .47-.13l1-.49a4.39 4.39 0 0 0 1-.67q.62-.49 1.2-.89a7.75 7.75 0 0 0 1.02-.94l1.33-1.24a9.18 9.18 0 0 0 1.18-1.22l1.09-1.4a8.64 8.64 0 0 1 .93-1.2 5.25 5.25 0 0 0 .89-1.33 4 4 0 0 0 .36-.4q.13-.18.35-.53a8 8 0 0 0 .53-.82q.27-.47.58-1a6 6 0 0 0 .6-1 10.21 10.21 0 0 1 .6-1.11 12 12 0 0 0 .64-1.31 10.6 10.6 0 0 1 .69-1.35v-.35a.24.24 0 0 1-.16.09.15.15 0 0 0-.11 0 10.46 10.46 0 0 0-.93.67q-.44.36-.93.71l-.55.42-.51.42q-.49.44-1 .84a12 12 0 0 1-1.09.75l-2 1.86-1 1-1.09 1a2.65 2.65 0 0 1-.27.36 6.6 6.6 0 0 0-1 1q-.47.55-1 1.09-.66.89-1.2 1.73t-1.2 1.82a9.53 9.53 0 0 0-.89 2 4 4 0 0 0-.11.69 2.37 2.37 0 0 1-.22.56zm0-3.37l.09-.27a.36.36 0 0 0-.09.26zm.13-.31a.17.17 0 0 0 .13-.18v-.09q-.13.04-.13.26zm3.28-4.79a5 5 0 0 0-.62.73l-.45.68a13.16 13.16 0 0 0-1 1.17q-.47.64-.91 1.4c-.09.06-.16.24-.22.53a.24.24 0 0 0 .24-.16 2.16 2.16 0 0 0 .11-.33q.62-1 1.33-2t1.45-1.8a1 1 0 0 1 .27-.18.43.43 0 0 1 .13-.31c-.21.15-.33.24-.33.27zM44.35 27q.13 0 .13-.22c-.09 0-.18.07-.27.22zm1.46-12.81a.35.35 0 0 0 0 .22.2.2 0 0 1 0-.09.31.31 0 0 0 .01-.13zm.09-.22a.2.2 0 0 0 .13-.22.26.26 0 0 0-.12.25zm.18-.49v.27a.41.41 0 0 0 .31-.44zm1.46-1.69c0 .06-.06.09-.09.09a.82.82 0 0 0-.2.18.79.79 0 0 1-.2.18.18.18 0 0 0-.11.07.59.59 0 0 1-.16.11v.31c-.15 0-.27.19-.36.49a.94.94 0 0 0 .22-.2l.18-.2.33-.44a1.18 1.18 0 0 0 .2-.44.77.77 0 0 0 .22-.09l.09-.13v-.18zm-1.15 22.44a.82.82 0 0 0 .2-.18l.2-.31a.58.58 0 0 0-.4.49zm.44.36a.57.57 0 0 0 .27-.13l.18-.18q-.22-.01-.44.3zm.71-22.12a1.4 1.4 0 0 0 .67-.71 1 1 0 0 0-.35.22 2 2 0 0 0-.31.48zm.35 20.17a.21.21 0 0 0 .18-.22s.07 0 .13-.09a.13.13 0 0 0 0-.09h.09l.16-.18a.68.68 0 0 1 .24-.18q.89-1.06 1.68-2.17t1.69-2.31a1.9 1.9 0 0 0 .09-.22.74.74 0 0 0 0-.22.63.63 0 0 0 .33-.31 2.49 2.49 0 0 0 .11-.44.68.68 0 0 0 .22-.49.38.38 0 0 0-.11.2.71.71 0 0 1-.11.24.9.9 0 0 1-.24.35.6.6 0 0 0-.2.35l-.2.29a2.05 2.05 0 0 1-.2.24q-.75 1.15-1.53 2.22a17.4 17.4 0 0 1-1.75 2l-.16.29-.16.24-.18.09a.2.2 0 0 0-.13.22l-.09.09-.18.13h.09a.13.13 0 0 0 .09 0zm.53.31h-.09.13zm0-.13v.13a.09.09 0 0 1 0-.07.09.09 0 0 0 .06-.07zm.13-.13a2.35 2.35 0 0 0 .49-.42l.49-.51.11-.11a.18.18 0 0 0 .07-.11v-.09l-.51.51q-.24.24-.6.55a.17.17 0 0 1-.13.18v.13zm1.73-2.08a.51.51 0 0 0 .18-.18s-.06 0-.09.07a.34.34 0 0 1-.13.11 1.45 1.45 0 0 0-.49.67 1.13 1.13 0 0 0 .33-.27.88.88 0 0 0 .26-.42zm.58-.8a.91.91 0 0 0-.4.62 1.35 1.35 0 0 0 .27-.24.56.56 0 0 0 .19-.4zm.35-.44a.26.26 0 0 0-.13.22v.09c.15-.05.19-.15.19-.33zm2-3.9a.09.09 0 0 0 0-.07.09.09 0 0 1 0-.07c-.09 0-.14 0-.16.11a.85.85 0 0 1-.07.2l.16-.07a.21.21 0 0 0 .08-.12zm.13-.4q-.18.18-.18.27c.08-.02.14-.11.19-.34zm.22-.4a.25.25 0 0 0-.09.18v.09zm.13-.27a.38.38 0 0 0-.13.27.38.38 0 0 0 .15-.29z"/><path class="cls-1" d="M75.52 13.17c.09 0 .12 0 .09.13a.18.18 0 0 1 0 .13h.18a.08.08 0 0 1 .09.09 1.19 1.19 0 0 1-.22.31q-.75 1.06-1.62 2.08T72.42 18l-.86 1.11a6.21 6.21 0 0 1-1 1l-.67.78a6.51 6.51 0 0 1-.71.73q-.67.66-1.22 1.15t-1.26 1a3 3 0 0 1-.6.44l-.73.44a1.15 1.15 0 0 1-.42.09h-.78a.79.79 0 0 1-.35-.09.69.69 0 0 0-.35-.07.7.7 0 0 1-.36-.07 3.15 3.15 0 0 0-.44-.22 2.7 2.7 0 0 1-1.33-1.6 6.92 6.92 0 0 1 0-.78 7 7 0 0 0 0-.78v-.53a2.18 2.18 0 0 1 0-.53 7.48 7.48 0 0 1 .27-1.6 4.43 4.43 0 0 1 .24-.71q.15-.35.29-.71a5.27 5.27 0 0 1 .22-.62 3.33 3.33 0 0 1 .35-.62 4.61 4.61 0 0 0 .38-.62 3 3 0 0 1 .38-.58 4 4 0 0 1 .4-.58c.15-.18.3-.37.44-.58a.59.59 0 0 1 .11-.16l.16-.16q.22-.27.4-.51a3.92 3.92 0 0 1 .4-.47 4.89 4.89 0 0 1 .73-.53q.38-.22.73-.4a2.17 2.17 0 0 1 .89-.18h.4a.91.91 0 0 0 .35 0 1.33 1.33 0 0 1 1 .58 2.2 2.2 0 0 1 .36 1q-.13.49-.24 1a5.28 5.28 0 0 1-.33 1 5 5 0 0 1-.55.93q-.33.44-.64.89a6.7 6.7 0 0 1-1.68 1.33 3.49 3.49 0 0 1-1.06.27 2.47 2.47 0 0 1-.58.09.36.36 0 0 1-.16 0s-.07 0-.07.09l-.31.75a4.94 4.94 0 0 0-.13.58q0 .27-.09.58a1.09 1.09 0 0 0-.13.31q0 .58-.07 1.13a9.45 9.45 0 0 0 0 1.13 1 1 0 0 0 .13.22.26.26 0 0 1 0 .18c.06.12.12.18.18.18a.26.26 0 0 0 .18 0 1.94 1.94 0 0 1 .64-.27 1.54 1.54 0 0 0 .55-.22 7.7 7.7 0 0 1 1.06-.89 5.94 5.94 0 0 0 1-.89q.4-.4.78-.73t.78-.73l.93-1a7.44 7.44 0 0 0 .8-1l.57-.55a6.25 6.25 0 0 0 .53-.55q.35-.49.78-1t.91-1a2.8 2.8 0 0 0 .62-.64 1.88 1.88 0 0 1 .58-.55c0-.09.06-.13.09-.13s.12-.09.27-.09.22.06.22.18zm-12.63 3.72V17a.13.13 0 0 0 0-.09zm.11-.09a1 1 0 0 0 .31-.62.59.59 0 0 0-.22.27 3 3 0 0 0-.09.35zm3.64-4.61l-.89.8-.53.71q-.27.36-.49.71-.36.53-.73 1.13a8.74 8.74 0 0 0-.64 1.22V17a1.1 1.1 0 0 1 .27-.49 16.12 16.12 0 0 1 2.84-3.95zm-3.33 3.95a.2.2 0 0 0 .13-.22.21.21 0 0 0-.15.22zm.13-.22c.06 0 .09-.05.09-.07v-.2a.18.18 0 0 0 0 .13.14.14 0 0 0-.11.14zm2-3a13.94 13.94 0 0 0-.91 1.2q-.42.62-.82 1.24c-.06.06-.08.11-.07.16s0 .1-.07.16a1.87 1.87 0 0 0 .18-.27l.84-1.2a10.45 10.45 0 0 1 .89-1.11l.18-.31c-.06.06-.1.09-.13.09a.13.13 0 0 0-.12.02zm2.88.18a.61.61 0 0 1 0-.27.63.63 0 0 0 0-.27.52.52 0 0 0-.38.11 2.72 2.72 0 0 1-.29.24 8.69 8.69 0 0 0-1.29 1.6 6.17 6.17 0 0 0-.53.8q-.22.4-.44.75l-.4.62a.84.84 0 0 0 0 .27c0 .06.06.09.18.09l.27-.09.53-.29a1.85 1.85 0 0 0 .49-.42 5.36 5.36 0 0 0 1.91-3zm-2.62 1.2a.13.13 0 0 0 0-.09zm.22-1.73c-.06 0-.09.06-.09.09zm.08 1.35a6.47 6.47 0 0 1 .6-.69l.69-.69v-.09l-.31.18a4.28 4.28 0 0 0-.64.6 5.47 5.47 0 0 0-.47.64v.22a.07.07 0 0 1 0-.07.07.07 0 0 0 .13-.1zm1.11 9q.13-.13.13-.18zm.13-6.74c.12-.06.18-.13.18-.22a.21.21 0 0 0-.19.22zm.35 6.3a.28.28 0 0 0-.22.18zm0-7.09q-.13.13-.13.09l.13.13a.78.78 0 0 0-.22.36 1.57 1.57 0 0 0 .58-.71l-.22.13v-.09a.08.08 0 0 1-.1.08zm-.22 6.56c.12 0 .18 0 .18-.13s-.14.07-.14.13zm0-5.54a.4.4 0 0 0 .31-.27q-.14 0-.23.26zm.13 6.07a.08.08 0 0 0 .09-.09c.03-.04 0 0 0 .09zm0-.71c.33-.09.49-.21.49-.36a.56.56 0 0 0-.22.13zm0 .58q.13 0 .13-.18zm.09-6.21a.26.26 0 0 0 0-.18.25.25 0 0 0 .17.18zm0 6q.27 0 .27-.18a.51.51 0 0 0-.05.21zm.41-6.36c-.09 0-.13.07-.13.13zm.09-.8c-.06 0-.09.1-.09.22a.3.3 0 0 0 .07-.2zm.09-.13s0 .07-.09.13l.09-.09zm0 6.56c.12 0 .18 0 .18-.13a.12.12 0 0 0-.24.13zm0 .58a.28.28 0 0 0 .22-.18.27.27 0 0 1-.11.07.2.2 0 0 0-.17.12zm.18-.71a.2.2 0 0 0 .13-.22s-.14.07-.19.22zm0 .49a.68.68 0 0 0 .18-.13q-.2 0-.2.13zm5.54-6.92a.53.53 0 0 1-.27.31c-.06 0-.09.07-.09.11a.24.24 0 0 1-.09.16q-.58.62-1.06 1.24t-1.06 1.24q-.66.75-1.35 1.44t-1.31 1.44a.33.33 0 0 1-.11.13.33.33 0 0 0-.11.13.93.93 0 0 0 .4-.27q.75-.75 1.44-1.51t1.44-1.55l1.6-2q.8-1 1.6-1.91l.22-.27a.69.69 0 0 0-.4.35zm-5.36 6.78a.12.12 0 0 0 .13-.13.12.12 0 0 0-.15.14zM69.89 20l-.58.67a6.06 6.06 0 0 1-.62.62.2.2 0 0 1 0 .09.19.19 0 0 0 0 .09.13.13 0 0 1 .09 0s.07 0 .13-.09a3.74 3.74 0 0 1 .51-.58 4.54 4.54 0 0 0 .47-.49.52.52 0 0 1 .09-.13A.18.18 0 0 0 70 20zm.11 0a.24.24 0 0 0 .11-.09l.07-.09c-.1.03-.18.09-.18.18zm.27-.18v-.13a.12.12 0 0 0-.13.13zm0-.13a1.94 1.94 0 0 0 .71-.75 2.4 2.4 0 0 0-.65.74zm.71-.75h.09a.13.13 0 0 1 0-.09.12.12 0 0 0-.07.08zm.13-.13a1.13 1.13 0 0 0 .53-.58 1 1 0 0 0-.31.27zm.53-.58a1.3 1.3 0 0 0 .44-.58 1 1 0 0 0-.31.24.51.51 0 0 0-.06.33zm.44-.58a1.92 1.92 0 0 0 .44-.4.56.56 0 0 0-.37.4zm.44-.4a1 1 0 0 0 .31-.4q-.23.15-.23.4zm.31-.4a.46.46 0 0 0 .31-.44.51.51 0 0 0-.23.44zm.31-.44c.09 0 .16-.07.22-.22-.07.02-.14.1-.14.21zm.22-.22a1 1 0 0 0 .16-.2l.2-.29a.41.41 0 0 0-.27.22zm.35-.49c.06 0 .09-.06.09-.09v-.09c.02 0-.01.06-.01.17zm.09-.18a.79.79 0 0 0 .22-.22.41.41 0 0 0-.14.22zm.22-.22a.56.56 0 0 0 .27-.27c-.12.06-.19.11-.2.16a.29.29 0 0 1 .01.11zm.27-.27l.09-.09v-.09zm.13-.22q.13 0 .13-.18c-.06 0-.09.06-.09.09a.13.13 0 0 1 .04.09zm.13-.18h.11a.63.63 0 0 1 .11-.13c-.06.01-.13.07-.13.13zm.22-.18a.24.24 0 0 0 .11-.09.52.52 0 0 1 .16-.13.4.4 0 0 0-.18.22zm.27-.84a.48.48 0 0 0 .18-.22zm0 .62a.36.36 0 0 0 .09-.27.18.18 0 0 0 0 .13.18.18 0 0 0-.01.14zm.09-.27c.06 0 .09-.1.09-.22a.3.3 0 0 0-.01.26zm.18-.22c.06 0 .12-.06.18-.18-.18.06-.27.12-.27.18z"/><path class="cls-1" d="M88.2 15.25l-.09.22.18.31a.36.36 0 0 0 .22-.13l1.2-.69q.58-.33 1.29-.69a14.85 14.85 0 0 1 1.69-.8l1.77-.71.86-.2a7.92 7.92 0 0 0 .78-.24h.26a.47.47 0 0 1 .4.18.42.42 0 0 1 .27.22c0 .06-.06.1-.18.13l-.18.13q-1 .27-1.86.6t-1.82.73l-1.75.89a17 17 0 0 0-1.66 1l-1.42.89a.43.43 0 0 0-.22.2l-.09.24a6.06 6.06 0 0 0-.13.69l-.09.64v.53a.85.85 0 0 1 0 .27.82.82 0 0 0 0 .27v.27a.36.36 0 0 0 0 .16.36.36 0 0 1 0 .16v.31a2.47 2.47 0 0 0-.13.44l-.09.44q-.18.62-.31 1.2a11 11 0 0 1-.35 1.2 5 5 0 0 0-.29.58q-.11.27-.24.62a2.86 2.86 0 0 1-.24.89 7.12 7.12 0 0 0-.33.89v.13a1.89 1.89 0 0 1-.27.58q-.31.58-.58 1.13A12.48 12.48 0 0 1 84 30a3.5 3.5 0 0 1-.33.67l-.42.67a6.18 6.18 0 0 0-.64.86 4.77 4.77 0 0 1-.69.86q-.13.09-.13.18a3.84 3.84 0 0 1-.55.75l-.69.71q-.49.53-1 1t-1.13 1a2.11 2.11 0 0 0-.55.38 2.42 2.42 0 0 1-.51.38q-.44.27-.84.47a8.61 8.61 0 0 1-.89.38q-.58.22-1.06.35a4 4 0 0 1-1.06.13 4.6 4.6 0 0 1-2.22-.58l-.45-.21-.42-.31a2.44 2.44 0 0 1-.64-.89 2.24 2.24 0 0 1-.11-1.15v-.27c0-.15.06-.28.09-.4a3.2 3.2 0 0 1 .13-.4q.22-.49.49-1a6.37 6.37 0 0 1 .62-.93 6.58 6.58 0 0 1 .55-1q.33-.49.73-1a2.92 2.92 0 0 1 .35-.47 4.44 4.44 0 0 0 .4-.51 9.46 9.46 0 0 0 .73-.82 8.73 8.73 0 0 1 .69-.78q.62-.75 1.33-1.49t1.33-1.44a5.44 5.44 0 0 0 .78-.75c.22-.27.45-.52.69-.75L80 22.39l1.51-1.31L83 19.77q.35-.35.71-.67a9.47 9.47 0 0 1 .8-.62 4.66 4.66 0 0 1 .71-.58l.18-.18a.3.3 0 0 0 .09-.22.48.48 0 0 0 .09-.27 1.29 1.29 0 0 1 0-.31 3.9 3.9 0 0 1 .18-.89 3.93 3.93 0 0 0 .18-.89l.18-.73a7.07 7.07 0 0 0 .13-.73h-.09l-.62.35q-.75.62-1.44 1.15t-1.31 1.11L79.2 19.2q-.8.71-1.64 1.37t-1.73 1.24a6.05 6.05 0 0 1-.53.4 2 2 0 0 1-.62.27 2.19 2.19 0 0 1-.67.13 1 1 0 0 1-.62-.18l-.44-.2a1 1 0 0 1-.36-.29.14.14 0 0 0-.09-.13l-.18-.09a2.21 2.21 0 0 1-.62-1.15 3.76 3.76 0 0 1 0-.42 3.88 3.88 0 0 0 0-.42 7.49 7.49 0 0 1 .3-1.13 8.56 8.56 0 0 1 .42-1.09 6.6 6.6 0 0 1 .42-.93q.24-.44.47-.93a1.17 1.17 0 0 1 .27-.4 1.19 1.19 0 0 0 .27-.4 7 7 0 0 0 .6-.86 5 5 0 0 1 .6-.82q.31-.35.55-.69l.51-.69 1.29-1.06h.32a.51.51 0 0 0 .35.09V11h.13a.08.08 0 0 1 .09.09.35.35 0 0 1 0 .13s0 .06.09.09.13.07.13.22l-.22.44q-.36.58-.71 1.09a5.09 5.09 0 0 0-.58 1.09c-.09.12-.17.24-.24.35a1.22 1.22 0 0 0-.16.35 7.79 7.79 0 0 0-.51.78q-.24.42-.51.82-.36.75-.75 1.51a7.74 7.74 0 0 0-.62 1.55 4.06 4.06 0 0 1-.2.55 4 4 0 0 0-.2.55.19.19 0 0 0 0 .09.31.31 0 0 1 0 .13h.09l.58-.27a16.72 16.72 0 0 0 1.73-1Q77.29 19 78 18.4l1.77-1.29 1.2-.93 1.2-.93 1.31-1q.64-.49 1.4-1a2.9 2.9 0 0 1 .31-.27 4.54 4.54 0 0 1 .4-.27.27.27 0 0 0 .16 0l.16-.09a1.67 1.67 0 0 1 .67-.13h.22a1.59 1.59 0 0 1 1.15.75l.13.35a8.45 8.45 0 0 1 .12 1.66zm-17.78 19.2zm3.86-5.32a10 10 0 0 0-.8.8l-.18.27a.67.67 0 0 0-.09.27 1.07 1.07 0 0 0-.33.29 2.44 2.44 0 0 0-.2.33 13.33 13.33 0 0 0-.86 1.13q-.38.55-.73 1.13a7.13 7.13 0 0 0-.49 1.11.79.79 0 0 0 0 .24.77.77 0 0 1 0 .24 3.15 3.15 0 0 0 .22-.44l.44-1a4.17 4.17 0 0 1 .58-1 6.62 6.62 0 0 1 .58-.82q.31-.38.58-.78l.35-.44a1 1 0 0 0 .13-.27c0-.09.07-.18.22-.27a4.79 4.79 0 0 0 .38-.42l.33-.42a1.72 1.72 0 0 0 .4-.62.79.79 0 0 0-.24.27zm-3.06 6.78a1.16 1.16 0 0 0 0 .35.89.89 0 0 0 .09.4 1.21 1.21 0 0 0 .44.69 1.29 1.29 0 0 0 .84.29h.2l.29-.07a6.28 6.28 0 0 0 1.46-.75 6.82 6.82 0 0 0 1.11-.69 9.4 9.4 0 0 0 .89-.78L78 34l1.51-1.77a.46.46 0 0 0 .11-.16.43.43 0 0 1 .11-.16l.53-.75q.27-.27.27-.4.44-.62.82-1.26l.73-1.26.51-1.11a8.2 8.2 0 0 0 .41-1.19q.31-.84.75-1.77a.26.26 0 0 0 0-.18 1.68 1.68 0 0 1 .25-.49c.07-.15.16-.33.24-.53a.49.49 0 0 1 0-.22.27.27 0 0 1 0-.16.27.27 0 0 0 0-.16.5.5 0 0 0 0-.16.47.47 0 0 1 0-.16l.27-.84a2.75 2.75 0 0 0 .24-.69q.07-.33.16-.69a.18.18 0 0 0 0-.13.12.12 0 0 0-.13-.13l-.22.13-2.66 2.35L80 24q-.62.62-1.2 1.24t-1.2 1.24q-.62.62-1.2 1.31l-1.2 1.4q-.62.75-1.26 1.57t-1.22 1.66q-.31.49-.64 1a8.77 8.77 0 0 0-.6 1 2.27 2.27 0 0 0-.11.55c0 .19 0 .41-.07.64zm0-1.69v-.09zm.09-.18a1.51 1.51 0 0 0 .27-.58.6.6 0 0 0-.27.44zM73 31.35q-.27.09-.27.27a2 2 0 0 0-.35.47q-.13.24-.27.55l-.13.18a.86.86 0 0 0-.4.67 2 2 0 0 0 .44-.62.25.25 0 0 1 .09-.18 2.22 2.22 0 0 0 .53-.75.29.29 0 0 0 .07-.11 1.17 1.17 0 0 1 .07-.16.68.68 0 0 0 .22-.27 1.16 1.16 0 0 0 .49-.75l-.27.33a1.33 1.33 0 0 0-.22.37zm.22-13.7zm.13-.31a.36.36 0 0 0 .09-.27c-.06.03-.09.12-.09.26zm2.7-4.52a1.71 1.71 0 0 1-.24.35 2.71 2.71 0 0 0-.29.4q-.53.75-1 1.53t-.89 1.57a.29.29 0 0 1-.07.18.78.78 0 0 0-.11.22.5.5 0 0 0 .18-.18l.09-.18q.35-.67.75-1.31a14 14 0 0 1 .89-1.26 2.78 2.78 0 0 1 .33-.58c.13-.18.26-.36.38-.53a.81.81 0 0 1 .16-.2.3.3 0 0 0 .11-.2zm-2.57 5.1a.3.3 0 0 0 .13-.27.15.15 0 0 0 0 .11.24.24 0 0 1-.13.15zm0 12.72a.26.26 0 0 0 .22-.13v-.09a.23.23 0 0 0-.11.09.68.68 0 0 1-.11.13zm.44-13.39a1.75 1.75 0 0 0 .13-.35 1.09 1.09 0 0 1 .22-.4q.8-1.29 1.64-2.57a29.65 29.65 0 0 1 1.82-2.48l.09-.18h-.09c-.06.06-.09.1-.09.13s0 .07-.09.13a2.55 2.55 0 0 0-.4.4 5.5 5.5 0 0 1-.4.44 15.34 15.34 0 0 0-.91 1.29L74.95 15c-.18.33-.38.67-.6 1a10 10 0 0 0-.6 1.11l-.09.27a.73.73 0 0 0 0 .22 1.64 1.64 0 0 0 .27-.35zm-.22 13.16l.38-.4a4.37 4.37 0 0 0 .38-.49 1.55 1.55 0 0 0-.42.4zm.89-1.11c-.09 0-.13.07-.13.13s0-.05.07-.07.06-.03.06-.05zm0 0a.25.25 0 0 0 .22-.27.41.41 0 0 0-.22.28zm.13-.8a.54.54 0 0 0 .35-.31.43.43 0 0 0-.35.32zm.09.53a.4.4 0 0 0 .27-.27v-.09a1 1 0 0 0-.13.16zm.27-.84a.71.71 0 0 0 .18-.13.56.56 0 0 0 .13-.22c-.21.09-.31.16-.31.36zm0 .49a.53.53 0 0 0 .36-.35c-.24.12-.36.24-.36.35zm.62-1.2c-.21.12-.31.24-.31.35a.67.67 0 0 0 .35-.31l.16-.18.16-.18a.53.53 0 0 0-.36.33zm-.27.84c.15-.06.22-.13.22-.22s-.22.11-.22.23zm.18-12.9c.09-.09.13-.15.13-.18zm.27-.49a.17.17 0 0 0-.13.18.69.69 0 0 0 .13-.17zM75.74 28a.35.35 0 0 0 .27-.35.4.4 0 0 0-.27.35zM76 14.76a.17.17 0 0 0-.13.18.17.17 0 0 0 .13-.18zm.09-.18a.18.18 0 0 0-.09.18c.07 0 .1-.06.1-.17zm0 13q.22-.09.22-.27a.71.71 0 0 0-.26.31zm.22-13.17c-.12 0-.18 0-.18.13s0 0 .15-.09zm-.21 12.68a.32.32 0 0 0 .18-.31.32.32 0 0 0-.18.31zm.27-12.81c-.06.06-.09.1-.09.13zm0-.13a.13.13 0 0 0 .04-.01zm0 13.08c.12 0 .18-.09.18-.18a.49.49 0 0 0-.19.17zm0-14.68a.13.13 0 0 0 0-.09v-.09a.26.26 0 0 0 .04.18zm0 1.51v-.13a.08.08 0 0 0-.09.09zm0 12.59a.54.54 0 0 0 .31-.31c-.12.02-.23.13-.23.31zm0-14.28a.5.5 0 0 0 .18-.27.24.24 0 0 0-.05.27zm.58.75a2.23 2.23 0 0 0-.53.71 1.41 1.41 0 0 0 .65-.71zM76.67 27l.2-.18a.24.24 0 0 0 .13-.22c-.16.03-.27.15-.33.4zm.18-.71a.73.73 0 0 0 .31-.35q-.31.13-.31.31zm.62-13.66a.82.82 0 0 0-.4.53 1.26 1.26 0 0 0 .4-.57zm-.31 13.83c.15-.06.22-.15.22-.27l-.11.11a.57.57 0 0 0-.11.12zm.22-.67l.13-.13.13-.13v-.13a.42.42 0 0 0-.26.36zm.44-13.83a.73.73 0 0 0-.27.44v.13a.42.42 0 0 0 .18-.24 1.85 1.85 0 0 1 .1-.36zM77.56 26c.21-.09.31-.19.31-.31zm.62-14.41a.54.54 0 0 0-.31.36.29.29 0 0 0 .22-.16.59.59 0 0 1 .09-.22zm-.35 13.66A.54.54 0 0 1 78 25a.28.28 0 0 0 .11-.22.37.37 0 0 0-.16.16 2.45 2.45 0 0 1-.12.29zm.22.27a1 1 0 0 1 .2-.16.22.22 0 0 0 .11-.2.52.52 0 0 0-.36.33zm.4-.89l.16-.16a.5.5 0 0 0 .11-.2.4.4 0 0 0-.27.34zm.22.22a1.32 1.32 0 0 0 .35-.31.75.75 0 0 0-.35.29zm.27-.75s.07 0 .13-.09-.07.06-.13.06zm.18-.18a.68.68 0 0 0 .31-.36q-.27.13-.27.27zm.31.27a.29.29 0 0 0 .18-.27.36.36 0 0 0-.19.24zm.93-1.42c-.15.09-.22.16-.22.22l.09-.09zm-.22.67a1.69 1.69 0 0 0 .27-.31.56.56 0 0 0-.28.28zm.75 8.78c-.06.06-.09.1-.09.13a.07.07 0 0 1 0-.07.07.07 0 0 0 .09-.09zM81 32a8.42 8.42 0 0 0 .84-1q.35-.49.71-1t.58-1.09q.27-.56.58-1.13l.13-.36.09-.27V27a.15.15 0 0 0 0 .11.24.24 0 0 1-.09.16l-.16.33a1.85 1.85 0 0 1-.16.29 4.93 4.93 0 0 0-.58.89q-.22.44-.44.84l-.69 1.13a6.6 6.6 0 0 1-.78 1 .78.78 0 0 0-.09.36A.26.26 0 0 0 81 32zm.18 1h-.03zm.49-.62a.51.51 0 0 0 .18-.18l-.11.09s-.1.04-.1.07zm.18-10.6a.36.36 0 0 0-.09.27.36.36 0 0 0 .06-.28zm.1 10.22a8.4 8.4 0 0 0 1.33-1.91 2 2 0 0 0 .33-.55q.11-.29.2-.6a.67.67 0 0 0-.13.18l-.13.22a9.35 9.35 0 0 0-.86 1.31 13.14 13.14 0 0 1-.82 1.31.18.18 0 0 0 0 .13v.13c.06 0 .09 0 .09-.07a.36.36 0 0 1-.01-.15zm0-2a.66.66 0 0 0-.13.18.17.17 0 0 0 .13-.18zm.13-.18a.17.17 0 0 0-.13.18.17.17 0 0 0 .13-.21zm.13-.22a6.47 6.47 0 0 0 .55-.84q.24-.44.47-.89a.4.4 0 0 0 0-.18.72.72 0 0 1 0-.22.18.18 0 0 0 0 .13 8.83 8.83 0 0 0-.62 1q-.27.49-.49 1a.13.13 0 0 0 0 .09v.13zm1.68-.71l-.09.09zM84 26.6zm35.46-21.1h-.27a2.56 2.56 0 0 1-.4.4l-.31.22L116.31 8a3.13 3.13 0 0 0-.33.38 1 1 0 0 1-.47.29 17.57 17.57 0 0 1-1.44 1.33q-.78.62-1.62 1.24l-.82.75a4.36 4.36 0 0 1-.91.67 4 4 0 0 1-.4.33 2.87 2.87 0 0 0-.49.47q-2 1.55-4.08 3.24-.62.49-1.31 1t-1.44.93a4.41 4.41 0 0 0-.53.27 1.39 1.39 0 0 1-.47.1 3.83 3.83 0 0 1-.58.09 2 2 0 0 1-1-.36 4.39 4.39 0 0 0-.67-.62 1.11 1.11 0 0 1-.44-.62 1.35 1.35 0 0 1-.49-1.33.81.81 0 0 1 0-.53.5.5 0 0 1 0-.22l.09-.18a2.9 2.9 0 0 0 0-.6A3.33 3.33 0 0 1 99 14a.13.13 0 0 0 0-.09.18.18 0 0 1 0-.13q.22-.75.38-1.4A6.08 6.08 0 0 1 100 11q.22-.62.38-1.2a5.45 5.45 0 0 1 .38-1 1.82 1.82 0 0 0 .2-.47 4.34 4.34 0 0 1 .16-.47q.58-1.11 1.17-2l1.22-1.91a4.27 4.27 0 0 1 .47-.69 4.83 4.83 0 0 1 .55-.55c0-.12.1-.18.31-.18s.27.16.27.22v.14a.07.07 0 0 1 0 .07.24.24 0 0 0-.09.11.13.13 0 0 0-.09 0 .2.2 0 0 0-.22.13.19.19 0 0 0 0 .09.2.2 0 0 1 0 .09.63.63 0 0 0-.11.13.54.54 0 0 1-.2.13h.27v.22l.16-.13a.15.15 0 0 0 .07-.13.31.31 0 0 0 .22-.31v-.14L105 3a.68.68 0 0 1 .18-.13h.22c.06 0 .09 0 .09.13s.09.13.09.31-.13.36-.22.62l-1.46 3.21q-.49 1.11-.93 2.19t-1 2.15a9 9 0 0 1-.38 1.33q-.24.66-.47 1.33t-.12 1.22a5.32 5.32 0 0 1-.22 1.18v.09c0 .41 0 .62.18.62a.4.4 0 0 0 .18 0l.27-.13a5 5 0 0 1 .73-.38 4.89 4.89 0 0 0 .73-.38q.75-.58 1.46-1a11.09 11.09 0 0 0 1.42-1.06 5.92 5.92 0 0 0 1.13-.73q.51-.42 1-.86a16.89 16.89 0 0 0 1.49-1.11q.69-.58 1.57-1.2.58-.35 1.13-.78a10.7 10.7 0 0 1 1.18-.78 5.68 5.68 0 0 1 1-1 10.09 10.09 0 0 0 1-.84q.44-.4.84-.71l.89-.67a.64.64 0 0 1 .35-.4 7 7 0 0 0 .67-.67 2.44 2.44 0 0 1 .75-.58 3 3 0 0 1 .55-.58 2.93 2.93 0 0 0 .55-.58l.53-.35a3.29 3.29 0 0 1 .4-.51 1.6 1.6 0 0 1 .62-.42l.6-.6a2.31 2.31 0 0 1 .35-.49l.4-.4h.07A.09.09 0 0 0 123 0a.63.63 0 0 0 .31.29.49.49 0 0 1 .27.33h.09q.18 0 .2.09a2.68 2.68 0 0 0 .11.31v.09a.26.26 0 0 1 .13.22 1.29 1.29 0 0 1-.24.33 4.51 4.51 0 0 0-.33.38l-.18.47a4.12 4.12 0 0 1-.18.42q-.44 1-.82 1.91a17.07 17.07 0 0 1-.86 1.82q-.22.62-.4 1.22T120.79 9a4.48 4.48 0 0 0-.42.78c-.1.25-.2.51-.29.78a2.32 2.32 0 0 0-.33.67 4.8 4.8 0 0 1-.29.71v.09l-.09.09a.38.38 0 0 0 .13.27h.18a9.82 9.82 0 0 0 1.35.2 5.56 5.56 0 0 1 1.4.29 4 4 0 0 1 .67.4 2.27 2.27 0 0 0 .53.31.21.21 0 0 0 .18.22.47.47 0 0 1 0 .27h-.35l-.42-.16a3 3 0 0 0-.55-.11 2 2 0 0 0-.86-.4q-.47-.09-1-.13h-.64a4.66 4.66 0 0 1-.64-.07 1.19 1.19 0 0 0-.44.2.84.84 0 0 0-.31.38l-.42 1q-.24.56-.47 1l-.47 1a9 9 0 0 0-.42 1.11 1.59 1.59 0 0 1-.27.49 1.49 1.49 0 0 0-.27.53 3.58 3.58 0 0 0-.31.58q-.13.31-.22.58a11.1 11.1 0 0 0-1.2 2.26 12.34 12.34 0 0 1-1.2 2.31 8.13 8.13 0 0 1-.53 1l-.62 1q-.49.58-.86 1.09t-.78 1q-.62.75-1.15 1.35a9 9 0 0 1-1.08.91 1.12 1.12 0 0 1-.27.33 1.73 1.73 0 0 1-.35.24 3.31 3.31 0 0 0-.6.47 2 2 0 0 1-.51.38 3.24 3.24 0 0 1-.49.4 2.08 2.08 0 0 1-.58.27 3.4 3.4 0 0 1-.89.13 2.16 2.16 0 0 1-.89-.18l-.6-.38a4.12 4.12 0 0 0-.55-.29 1.06 1.06 0 0 1-.35-.55 1.77 1.77 0 0 1 0-.69 2.63 2.63 0 0 1 0-.69 5.65 5.65 0 0 0 0-.73q.13-.36.2-.58c0-.15.1-.3.16-.44a10.79 10.79 0 0 0 .89-1.86 4.09 4.09 0 0 1 .44-.89 6.36 6.36 0 0 0 .49-.89 10 10 0 0 1 .67-1q.4-.56.71-1a3.2 3.2 0 0 0 .49-.64 4.69 4.69 0 0 0 .35-.73 5 5 0 0 0 .42-.38l.42-.42.75-.93a3.84 3.84 0 0 1 .8-.75 8.48 8.48 0 0 1 1.2-1.37A3.39 3.39 0 0 1 111 17a4.25 4.25 0 0 0 .84-.73 8.86 8.86 0 0 1 .78-.69q.42-.33.82-.6t.89-.6a8.11 8.11 0 0 1 .8-.51q.27-.18.49-.35a1 1 0 0 0 .31-.62.13.13 0 0 1 0-.09.18.18 0 0 0 0-.13.13.13 0 0 0 0-.09 2.91 2.91 0 0 0 .55-.75L117 11a3 3 0 0 1 .35-1q.27-.47.49-1a8.86 8.86 0 0 0 .44-1 3.16 3.16 0 0 1 .44-.86 2.8 2.8 0 0 0 .2-.51 1.85 1.85 0 0 1 .2-.47l.2-.29a1 1 0 0 0 .16-.38zm-11 15.12a1.82 1.82 0 0 0-.38.27.74.74 0 0 0-.24.44 1.33 1.33 0 0 0-.6.49l-.42.67a4 4 0 0 1-.27.31.55.55 0 0 0-.13.22c-.12 0-.18.1-.18.31a.13.13 0 0 1 0 .09s0 .09-.13.18h-.09a.66.66 0 0 0-.13.18l-.09.18h-.09a.13.13 0 0 1-.09 0v.13a.26.26 0 0 1 0 .18.07.07 0 0 0-.07 0s-.07.06-.16.09h.09v.09h-.09v.22s0 .07-.09.13-.09.1-.09.13h-.09a.32.32 0 0 1 0 .13.19.19 0 0 0 0 .09.09.09 0 0 0-.07 0 .18.18 0 0 1-.11 0v.44s0 .06-.09.09v.09q-.18.18-.18.27l-.09.18a.6.6 0 0 0-.11.13 1 1 0 0 1-.16.18.22.22 0 0 1 0 .11.27.27 0 0 0 0 .16.13.13 0 0 1 0-.09c-.06 0-.09.06-.09.09a.25.25 0 0 0-.09.18v.09a.13.13 0 0 1 0 .09.14.14 0 0 0 .09.13.41.41 0 0 0-.22.27c-.06 0-.09.06-.09.09a.26.26 0 0 1 0 .18.12.12 0 0 0 0 .09v.09a.09.09 0 0 0 0 .07.18.18 0 0 1 0 .11.36.36 0 0 1-.18.35 1 1 0 0 0 0 .2.31.31 0 0 1 0 .2.48.48 0 0 1-.13.35.13.13 0 0 0 .09 0 1.09 1.09 0 0 0 .13-.22 2.81 2.81 0 0 1 .24-.84q.2-.44.42-.89a2.66 2.66 0 0 1 .27-.55l.4-.64.55-1a7.11 7.11 0 0 0 .51-1 1.64 1.64 0 0 1 .38-.58.87.87 0 0 0 .29-.53l.31-.49h.13a5 5 0 0 0 .58-.78 5 5 0 0 1 .58-.78 3 3 0 0 1 .24-.31 1.55 1.55 0 0 1 .29-.27.36.36 0 0 0 .13-.22l.09-.13v.07c0 .07-.74.49-.77.49zM102.92 30v-.11a.07.07 0 0 0 0-.07zm.13-1.11s.03-.01 0 .02zm.58 2.13v.31a.22.22 0 0 0 0 .27s0 .08.11.16.13.1.16.07.1-.18.13-.18A8.54 8.54 0 0 0 105 31a5.64 5.64 0 0 0 .67-.64 2 2 0 0 0 .55-.49l.42-.53.69-.93a10.27 10.27 0 0 0 .64-1l.58-.89a4.54 4.54 0 0 0 .62-.78 3.3 3.3 0 0 1 .62-.73 5.2 5.2 0 0 1 .38-.78q.24-.42.47-.86.35-.67.8-1.37t.93-1.37v-.09a.26.26 0 0 1 0-.18q.18-.31.33-.62t.38-.67l.24-.64a5.53 5.53 0 0 1 .33-.69 4.14 4.14 0 0 0 .44-.89 4.06 4.06 0 0 1 .49-.93h-.13a.18.18 0 0 1-.13 0A10 10 0 0 0 113 17q-.56.53-1.26 1.15t-1.62 1.66q-.82.91-1.62 1.84t-1.31 1.68a8.88 8.88 0 0 0-1 1.68q-.58.89-1.06 1.8t-.89 1.84l-.48 1.35a5 5 0 0 0 0 .6.94.94 0 0 1-.13.4zm.27-2.84zm.53-1a.3.3 0 0 0 .27-.22c0-.12.06-.25.09-.4a1.35 1.35 0 0 0-.36.62zm.36-.62a.12.12 0 0 0 .13-.13v-.09a.38.38 0 0 0 0 .11s-.08.05-.14.11zm.13-.22a.32.32 0 0 0 .22-.31c-.15.09-.22.18-.22.27zm.53-.75a.12.12 0 0 0-.13.13q-.18.18-.18.27a.36.36 0 0 0 .18-.27c.09 0 .13-.06.13-.18a1.35 1.35 0 0 0 .13-.49.78.78 0 0 0-.09.35.09.09 0 0 1 0 .07.09.09 0 0 0-.04.11zm.8-1.51a.61.61 0 0 1-.11.16.27.27 0 0 0-.07.2c-.15 0-.22.06-.22.09v.22l-.16.16a.21.21 0 0 0-.07.16.4.4 0 0 0 .27-.35c.15-.06.22-.15.22-.27a.47.47 0 0 0 .18-.4l.2-.2a.31.31 0 0 0 .11-.2s-.21.12-.27.35zm-.4-.53h.13zm.67 0a.4.4 0 0 0 .27-.27v-.18a1.35 1.35 0 0 1-.16.2.53.53 0 0 0-.12.29zm.27-.44L107 23l.13-.13a.78.78 0 0 1-.22.11.1.1 0 0 0-.09.11zm.31-.27a.81.81 0 0 0 .53-.67 1.12 1.12 0 0 0-.54.71zm.13-8.73c.12 0 .24-.09.35-.27-.21.1-.33.16-.36.3zm0 .71a.18.18 0 0 0 .18-.09l.09-.18a.29.29 0 0 0-.18.07.23.23 0 0 0-.05.23zm.31-1h.09c.12 0 .19 0 .22-.09a.69.69 0 0 1 .13-.18l-.24.11a.38.38 0 0 0-.16.22zm0 8.34a.67.67 0 0 0 .35-.62 1.07 1.07 0 0 0-.35.53zm0-7.67c.21-.09.31-.16.31-.22v-.09a.29.29 0 0 0-.18.07.19.19 0 0 0-.09.16.13.13 0 0 1 .08.13zm.67-.62q-.31.09-.36.31a.39.39 0 0 1 .2-.11 1 1 0 0 0 .33-.2.36.36 0 0 0 .22-.13l.22-.22a.9.9 0 0 0-.35.11 2.87 2.87 0 0 0-.14.29zm-.21 7.72a1.07 1.07 0 0 0 .62-.67 1.67 1.67 0 0 0-.35.38 1 1 0 0 1-.27.29zm4.21-11.48h-.09c-.06.06-.09.1-.09.13h.09l-.13.07-.22.16a16.94 16.94 0 0 1-1.77 1.41 14 14 0 0 0-1.71 1.37q-.09 0-.27.35a1.42 1.42 0 0 0 .42-.27l.42-.35a15.69 15.69 0 0 1 1.49-1.13q.82-.55 1.62-1.13t1.37-1.2a10 10 0 0 1 1.37-1.06q.4-.4.84-.78t.93-.73a12 12 0 0 1 1.73-1.42 2.33 2.33 0 0 1 .35-.44 1.37 1.37 0 0 1 .44-.31l.58-.55.53-.51a.79.79 0 0 0 .35-.44v-.4a.9.9 0 0 0-.4.36h-.18v.18a.14.14 0 0 1-.09.13l-.09.18c-.06.06-.09.1-.09.13h-.09a.68.68 0 0 0-.31.18v.09l-.21.17v.09c-.15.06-.22.13-.22.22a.08.08 0 0 0-.09.09l-.31.22c-.15 0-.22.1-.22.22a.13.13 0 0 0-.09 0c-.06 0-.13.07-.22.22l-.09.18h-.42c-.07 0-.13.1-.16.24a.51.51 0 0 1-.07.11.09.09 0 0 0 0 .07c-.06 0-.09.05-.09.07s0 0-.09.07a.2.2 0 0 1-.11.11l-.16.07h-.09l-.13.13-.09.13c0 .06-.06.09-.09.09s-.07 0-.13.09a.13.13 0 0 0 0 .09L116 7a.18.18 0 0 0-.13 0 .18.18 0 0 1-.13 0l-.31.4c-.06-.06-.09-.1-.09-.13l-.09.18-.16.09a.21.21 0 0 1-.11 0h-.18c0 .06.1.09.22.09-.27.27-.46.4-.58.4v.04a.56.56 0 0 1-.13.27v.13q0 .09-.13.2a1.31 1.31 0 0 1-.35.2c-.06.15-.21.22-.44.22V9a1.23 1.23 0 0 1-.84.71v.09a.53.53 0 0 1-.36.27zm-3.61 10.15v.22l.33-.44a.93.93 0 0 1 .33-.31c.06-.18.09-.25.09-.22a9.15 9.15 0 0 0-.75.75zm.71 7.49a.76.76 0 0 0-.4.49 1.29 1.29 0 0 0 .22-.16.56.56 0 0 0 .17-.33zM114 9.35l-.93.89-.27.13q-.89.62-1.6 1.22a14.42 14.42 0 0 1-1.46 1.09l-.18.2a1 1 0 0 1-.22.2.45.45 0 0 1-.2.18.29.29 0 0 0-.16.22v.09c.15 0 .25-.12.31-.36a.59.59 0 0 1 .2-.13.28.28 0 0 0 .16-.13q.75-.49 1.51-1.06a19.29 19.29 0 0 0 1.51-1.29l.18-.16.18-.16a1.77 1.77 0 0 0 .44-.27 1.12 1.12 0 0 0 .31-.36 1.17 1.17 0 0 0 .4-.27 1.4 1.4 0 0 0 .27-.35.32.32 0 0 0-.24.13.54.54 0 0 1-.21.19zm-5 11.08v.27a.89.89 0 0 0 .27-.31l.18-.35h.09a1 1 0 0 1-.24.24.72.72 0 0 0-.3.16zm.67 6.83a7.3 7.3 0 0 0 .86-1q.38-.56.82-1.18.89-1.33 1.68-2.68a29.66 29.66 0 0 0 1.46-2.82 2.48 2.48 0 0 0 .51-.86 3.51 3.51 0 0 1 .47-.91 11.41 11.41 0 0 0 .6-1.31 4.81 4.81 0 0 1 .73-1.26V15a.56.56 0 0 0 0-.31.25.25 0 0 0 0 .18 2.82 2.82 0 0 0-.42.64l-.29.6a5.56 5.56 0 0 0-.6 1l-.47 1a2.46 2.46 0 0 0-.33.6 2.52 2.52 0 0 1-.42.69 15 15 0 0 1-1 1.82q-.53.84-1 1.69-.66 1.15-1.42 2.28t-1.51 2.19v.22a.39.39 0 0 1 .16-.16.58.58 0 0 0 .16-.17zm.71.49a.4.4 0 0 0 .2-.13.3.3 0 0 0 .07-.18 7.91 7.91 0 0 0 .86-1.13q.38-.6.86-1.26.49-.89 1-1.64a15.94 15.94 0 0 0 1-1.77.88.88 0 0 0 .35-.67.16.16 0 0 0-.18.18q-.36.58-.73 1.13c-.25.37-.47.72-.64 1l-.93 1.42q-.44.66-1 1.37a5.65 5.65 0 0 1-.6 1q-.33.44-.64.8a.2.2 0 0 1 0 .09.3.3 0 0 0 0 .13v.13a.69.69 0 0 1 .18-.27zm-.22-8.51h-.09a.13.13 0 0 1 .08 0zm.27-.8h-.09a.13.13 0 0 1 .07 0zm.49-.62s0 .06-.13.09c.07-.03.11-.06.11-.09zm3.68.22l-1.33 2.66q-.49.75-1 1.55l-.89 1.46a1.27 1.27 0 0 1-.11.24 1.05 1.05 0 0 0-.11.33v.09a1 1 0 0 0 .22-.29.44.44 0 0 1 .18-.2q.4-.71 1-1.64t1-1.82l.49-1a5.53 5.53 0 0 0 .4-1l.27-.33a1.25 1.25 0 0 0 .22-.42v-.09a.2.2 0 0 0-.22.13.56.56 0 0 1-.14.29zm-.13-9a.94.94 0 0 0 .58-.35.53.53 0 0 0-.29.18.53.53 0 0 1-.31.13zm.31 11.79q.27 0 .27-.4-.27.09-.27.31v.09c-.06 0-.09 0-.09.13v-.07c0-.02.04-.02.07-.05zM115 8.69q.4-.13.4-.4a.2.2 0 0 1 0-.09.2.2 0 0 0 0-.09l-.27.27a.94.94 0 0 0-.13.31zm.75 6.83a3.34 3.34 0 0 1-.4.91 2.71 2.71 0 0 0-.35.78v.31-.13a6.24 6.24 0 0 1 .44-1 10.87 10.87 0 0 0 .49-1l-.09.09zm-.42 4.48c-.18 0-.27.06-.27.18s.14 0 .16 0a.63.63 0 0 1 .11-.18zm.13-11.88a.76.76 0 0 0 .67-.4.86.86 0 0 0-.66.39zm.54 7.18c.06 0 .09 0 .09-.13a.26.26 0 0 0-.09.13zm.71-8.11a.6.6 0 0 0-.44.24 3 3 0 0 0-.18.29.34.34 0 0 0 .29-.16.72.72 0 0 1 .33-.24l.22-.2a.55.55 0 0 0 .18-.33.31.31 0 0 0-.24.16 2 2 0 0 0-.12.23zm.4-.4q.49-.13.58-.4a.6.6 0 0 0-.54.39zm.58-.44a.17.17 0 0 1 0-.11.17.17 0 0 0 0-.11.72.72 0 0 0 .04.21zm0-.22h.09a.54.54 0 0 0 .35-.11l.22-.2a1.27 1.27 0 0 0-.58.3zm1.29-.93a.36.36 0 0 0-.36.31q.38-.1.44-.32zm.67-.53l-.35.22a.4.4 0 0 0 .42-.23zm-.27.84zm17.1 7.66c.09 0 .12 0 .09.13a.18.18 0 0 1 0 .13h.18a.08.08 0 0 1 .09.09 1.19 1.19 0 0 1-.22.31q-.75 1.06-1.62 2.08T133.38 18l-.86 1.11a6.23 6.23 0 0 1-1 1l-.67.78a6.52 6.52 0 0 1-.71.73q-.66.66-1.22 1.15t-1.26 1a3 3 0 0 1-.6.44l-.73.44a1.15 1.15 0 0 1-.42.09h-.78a.79.79 0 0 1-.35-.09.69.69 0 0 0-.35-.07.7.7 0 0 1-.36-.07 3.15 3.15 0 0 0-.44-.22 2.7 2.7 0 0 1-1.33-1.6 6.92 6.92 0 0 1 0-.78 7 7 0 0 0 0-.78v-.53a2.18 2.18 0 0 1 0-.53 7.48 7.48 0 0 1 .27-1.6 4.43 4.43 0 0 1 .24-.71q.15-.35.29-.71a5.27 5.27 0 0 1 .22-.62 3.33 3.33 0 0 1 .35-.62 4.61 4.61 0 0 0 .38-.62 3 3 0 0 1 .38-.58 4 4 0 0 1 .4-.58c.15-.18.3-.37.44-.58a.59.59 0 0 1 .11-.16l.16-.16q.22-.27.4-.51a3.92 3.92 0 0 1 .4-.47 4.87 4.87 0 0 1 .73-.53q.38-.22.73-.4a2.17 2.17 0 0 1 .89-.18h.4a.91.91 0 0 0 .36 0 1.33 1.33 0 0 1 1 .58 2.19 2.19 0 0 1 .35 1q-.13.49-.24 1a5.25 5.25 0 0 1-.33 1 5 5 0 0 1-.55.93q-.33.44-.64.89a6.7 6.7 0 0 1-1.68 1.33 3.49 3.49 0 0 1-1.06.27 2.48 2.48 0 0 1-.58.09.36.36 0 0 1-.16 0s-.07 0-.07.09L125 19a4.94 4.94 0 0 0-.13.58q0 .27-.09.58a1.09 1.09 0 0 0-.13.31q0 .58-.07 1.13a9.45 9.45 0 0 0 0 1.13 1 1 0 0 0 .13.22.26.26 0 0 1 0 .18c.06.12.12.18.18.18a.26.26 0 0 0 .18 0 1.94 1.94 0 0 1 .64-.27 1.53 1.53 0 0 0 .55-.22 7.71 7.71 0 0 1 1.06-.89 5.94 5.94 0 0 0 1-.89q.4-.4.78-.73t.78-.73l.93-1a7.44 7.44 0 0 0 .8-1l.62-.55a6.25 6.25 0 0 0 .53-.55q.35-.49.78-1t.91-1a2.8 2.8 0 0 0 .62-.64 1.88 1.88 0 0 1 .58-.55c0-.09.06-.13.09-.13s.12-.09.27-.09.22.06.22.18zm-12.64 3.72V17a.13.13 0 0 0 0-.09zm.09-.09a1 1 0 0 0 .31-.62.59.59 0 0 0-.22.27 3 3 0 0 0-.09.35zm3.64-4.61l-.89.8-.53.71q-.27.36-.49.71-.36.53-.73 1.13a8.74 8.74 0 0 0-.64 1.22V17a1.1 1.1 0 0 1 .27-.49 16.12 16.12 0 0 1 2.84-3.95zm-3.33 3.95a.2.2 0 0 0 .13-.22.21.21 0 0 0-.12.22zm.13-.22c.06 0 .09-.05.09-.07v-.2a.18.18 0 0 0 0 .13.14.14 0 0 0-.08.14zm2-3a14 14 0 0 0-.91 1.2q-.42.62-.82 1.24c-.06.06-.08.11-.07.16s0 .1-.07.16a1.87 1.87 0 0 0 .18-.27l.84-1.2a10.4 10.4 0 0 1 .89-1.11l.18-.31c-.06.06-.1.09-.13.09a.13.13 0 0 0-.09.02zm2.88.18a.61.61 0 0 1 0-.27.63.63 0 0 0 0-.27.52.52 0 0 0-.38.11 2.76 2.76 0 0 1-.29.24 8.67 8.67 0 0 0-1.29 1.6 6.17 6.17 0 0 0-.53.8q-.22.4-.44.75l-.4.62a.82.82 0 0 0 0 .27c0 .06.06.09.18.09l.27-.09.53-.29a1.85 1.85 0 0 0 .49-.42 5.36 5.36 0 0 0 1.91-3zm-2.62 1.2a.13.13 0 0 0 0-.09zm.22-1.73c-.06 0-.09.06-.09.09zm.09 1.37a6.42 6.42 0 0 1 .6-.69l.69-.69v-.09l-.31.18a4.28 4.28 0 0 0-.64.6 5.53 5.53 0 0 0-.47.64v.22a.07.07 0 0 1 0-.07.07.07 0 0 0 .14-.12zm1.11 9q.13-.13.13-.18zm.13-6.74c.12-.06.18-.13.18-.22a.21.21 0 0 0-.17.2zm.36 6.3a.28.28 0 0 0-.22.18zm0-7.09q-.13.13-.13.09l.13.13a.78.78 0 0 0-.22.36 1.57 1.57 0 0 0 .58-.71l-.22.13v-.09a.08.08 0 0 1-.09.06zm-.22 6.56c.12 0 .18 0 .18-.13s-.13.05-.13.11zm0-5.54a.4.4 0 0 0 .31-.27q-.13-.02-.22.24zm.13 6.07a.08.08 0 0 0 .09-.09c.04-.06.01-.02.01.07zm0-.71c.33-.09.49-.21.49-.36a.57.57 0 0 0-.22.13zm0 .58q.13 0 .13-.18zm.09-6.21a.26.26 0 0 0 0-.18.26.26 0 0 0 .18.16zm0 6c.18 0 .27-.06.27-.18a.51.51 0 0 0-.04.19zm.18-6.38c-.09 0-.13.07-.13.13zM129 15c-.06 0-.09.1-.09.22A.3.3 0 0 0 129 15zm.09-.13s0 .07-.09.13l.09-.09zm0 6.56c.12 0 .18 0 .18-.13a.12.12 0 0 0-.19.11zm0 .58a.28.28 0 0 0 .22-.18.28.28 0 0 1-.11.07.2.2 0 0 0-.12.1zm.18-.71a.2.2 0 0 0 .13-.22s-.09.05-.14.2zm0 .49a.69.69 0 0 0 .18-.13c-.09-.02-.15.02-.15.11zm5.54-6.92a.53.53 0 0 1-.27.31c-.06 0-.09.07-.09.11a.24.24 0 0 1-.09.16q-.58.62-1.06 1.24t-1.06 1.24q-.67.75-1.35 1.44t-1.31 1.44a.33.33 0 0 1-.11.13.33.33 0 0 0-.11.13.93.93 0 0 0 .4-.27q.75-.75 1.44-1.51l1.44-1.55 1.6-2q.8-1 1.6-1.91l.22-.27a.69.69 0 0 0-.4.35zm-5.36 6.78a.12.12 0 0 0 .13-.13.12.12 0 0 0-.1.12zm1.37-1.6l-.58.67a6.1 6.1 0 0 1-.62.62.2.2 0 0 1 0 .09.2.2 0 0 0 0 .09.13.13 0 0 1 .09 0s.07 0 .13-.09a3.74 3.74 0 0 1 .51-.58 4.59 4.59 0 0 0 .47-.49.52.52 0 0 1 .09-.13.18.18 0 0 0 0-.13zm.13 0a.24.24 0 0 0 .11-.09l.07-.09c-.13-.02-.13.04-.13.13zm.27-.18v-.13a.12.12 0 0 0-.13.13zm0-.13a1.94 1.94 0 0 0 .71-.75 2.4 2.4 0 0 0-.64.69zm.71-.75h.09a.13.13 0 0 1 0-.09.12.12 0 0 0-.02.03zm.13-.13a1.13 1.13 0 0 0 .53-.58 1 1 0 0 0-.31.27zm.53-.58a1.3 1.3 0 0 0 .44-.58 1 1 0 0 0-.31.24.51.51 0 0 0-.05.28zm.44-.58a1.92 1.92 0 0 0 .44-.4.56.56 0 0 0-.36.35zm.44-.4a1 1 0 0 0 .31-.4q-.22.1-.22.35zm.31-.4a.46.46 0 0 0 .31-.44.51.51 0 0 0-.22.39zm.31-.44c.09 0 .16-.07.22-.22-.06-.03-.13.05-.13.16zm.22-.22a1 1 0 0 0 .16-.2l.2-.29a.42.42 0 0 0-.27.22zm.36-.49c.06 0 .09-.06.09-.09v-.09c.02-.05-.01.01-.01.12zm.09-.18a.79.79 0 0 0 .22-.22.4.4 0 0 0-.14.17zm.22-.22a.56.56 0 0 0 .27-.27c-.12.06-.19.11-.2.16a.29.29 0 0 1 .01.06zm.27-.27l.09-.09v-.09zm.13-.22q.13 0 .13-.18c-.06 0-.09.06-.09.09a.13.13 0 0 1 .04.04zm.13-.18h.11a.62.62 0 0 1 .11-.13c-.06-.04-.13.02-.13.08zm.22-.18a.24.24 0 0 0 .11-.09.52.52 0 0 1 .16-.13.4.4 0 0 0-.18.17zm.27-.84a.48.48 0 0 0 .18-.22zm0 .62a.36.36 0 0 0 .09-.27 45.7 45.7 0 0 0-.09.27zm.09-.27c.06 0 .09-.1.09-.22a.3.3 0 0 0-.01.21zm.18-.22c.06 0 .12-.06.18-.18-.18.06-.27.12-.27.18z"/><path class="cls-1" d="M146.77 12.06c0 .21 0 .33-.09.36-.09.24-.22.35-.4.35h-.09a.71.71 0 0 0-.44-.18 1 1 0 0 0-.42.09 3.84 3.84 0 0 1-.51.18l-1.09.8-1.22.93-.84.67a8.55 8.55 0 0 0-.8.71 5.73 5.73 0 0 0-1 .86q-.56.6-1.13 1.26l-1.13 1.29q-.56.62-.91 1a5.54 5.54 0 0 0-.58.8q-.27.44-.62.93a.52.52 0 0 0-.29.22.85.85 0 0 1-.16.22.77.77 0 0 1-.31.13.12.12 0 0 1-.13-.13h-.22a.22.22 0 0 1-.18-.11c-.15-.06-.22-.12-.22-.18s-.13-.33-.4-.44a1.66 1.66 0 0 1-.11-.38 2.12 2.12 0 0 1 0-.51l.35-1.51c0-.12 0-.19.09-.22l.67-2.62q.58-2.26 1.24-4.43t1.37-4.43l.09-.09q.09-.22.16-.35a.21.21 0 0 1 .2-.13l.18.09a.79.79 0 0 0 .4.27q.44.13.44.44a1.45 1.45 0 0 0-.09.44.66.66 0 0 1 0 .24.17.17 0 0 0 0 .2q-.93 3.06-1.69 6.07a13.74 13.74 0 0 0-.44 1.4q-.18.69-.35 1.44v.4a.13.13 0 0 0 0 .09h.27a.72.72 0 0 1 .2-.38 1.11 1.11 0 0 1 .38-.24 5.88 5.88 0 0 0 .42-.51l.64-.82q.35-.44.69-.8l.47-.49a8.33 8.33 0 0 1 1.06-1q.58-.44 1.06-.89l1.15-.84a9.93 9.93 0 0 1 1.33-.8 2.54 2.54 0 0 1 1.11-.31.47.47 0 0 1 .27 0l.51.09.42.09a.9.9 0 0 1 .38.29 4.29 4.29 0 0 1 .31.44zm-11.31 9a4.43 4.43 0 0 0 .47-.44 6.09 6.09 0 0 0 .42-.53l-.27.18-.71.75zm.27-1.11a.88.88 0 0 0 .44-.33q.18-.24.4-.51a1.32 1.32 0 0 0-.84.89zm.93-1.06a.13.13 0 0 1 0-.09zm.13.58c.12-.09.18-.15.18-.18s0 0-.09 0a.13.13 0 0 0-.09 0zm23.81-5.9h.27a.13.13 0 0 1 .09 0h.18l-.09.18a.12.12 0 0 1-.13.13h.09c.09 0 .1-.07.31-.13s.18 0 .18 0a.18.18 0 0 1 0 .13q0 .22-.58.58l-.42.11a1.32 1.32 0 0 1-.42.07l-.51.07h-3.46a4.74 4.74 0 0 1-.64-.07.36.36 0 0 0-.22 0 .13.13 0 0 0-.09 0v.09a10.26 10.26 0 0 1-.24 1 4.15 4.15 0 0 1-.42 1 3.77 3.77 0 0 0-.33.78 3 3 0 0 1-.33.73 2.66 2.66 0 0 0-.4.75.79.79 0 0 1-.2.27.32.32 0 0 0-.11.27 6.3 6.3 0 0 1-.49.82l-.53.73a3.93 3.93 0 0 1-.33.47 1.8 1.8 0 0 0-.29.47 10 10 0 0 1-1.06.93 1 1 0 0 1-.47.44q-.33.18-.64.31a2.33 2.33 0 0 1-.42.16 1.58 1.58 0 0 1-.33.07 2.39 2.39 0 0 1-.53 0 1.57 1.57 0 0 1-.44 0q-.49-.18-.93-.38a7.48 7.48 0 0 1-.93-.51 2.68 2.68 0 0 1-.62-.53 2.43 2.43 0 0 1-.4-.62l-.13-1v-.44a.6.6 0 0 1-.07-.31.9.9 0 0 0 0-.22v-.13a2.13 2.13 0 0 0 0-.49 2.28 2.28 0 0 0 .07-.24.51.51 0 0 1 .16-.24v-.44a15.61 15.61 0 0 1 .84-1.84q.49-.91 1-1.75a5.75 5.75 0 0 1 .71-.82l.8-.78a1.17 1.17 0 0 1 .36-.38l.53-.38a1.8 1.8 0 0 1 .29-.16 3.28 3.28 0 0 0 .38-.2 1.13 1.13 0 0 1 .38-.11h.65a1 1 0 0 1 0-.2.21.21 0 0 0-.07-.2.77.77 0 0 1 .27-.62.56.56 0 0 1 .27-.31 1.71 1.71 0 0 1 .84-.62h.13a.17.17 0 0 0 .11 0 .18.18 0 0 1 .11 0h.65l1.11.22a.64.64 0 0 1 .44.22 2.33 2.33 0 0 1 .89 1.24 4.48 4.48 0 0 1 0 .78q0 .42-.07.82v.18h.18l.47.13a2.39 2.39 0 0 0 .51 0h2.25a2.63 2.63 0 0 0 1-.22.72.72 0 0 1 .31-.09q.09 0 .18.13a.13.13 0 0 0 .09 0 .31.31 0 0 0 .13 0h.09zm-14.05 3.28c.15-.06.22-.15.22-.27a.25.25 0 0 0-.22.27zm.09-1a.46.46 0 0 0 .27 0 .18.18 0 0 1-.13 0h-.09zm.27.44a.2.2 0 0 0-.11.13.72.72 0 0 0 0 .18l.13-.09a.78.78 0 0 1 .09-.35c-.09.04-.12.08-.12.11zm0 3.81a1.65 1.65 0 0 0 0 .6 3.76 3.76 0 0 1 .07.73 1.72 1.72 0 0 0 .16.53c.07.15.16.33.24.53a.49.49 0 0 0 .22 0 1 1 0 0 1 .31-.27 1.92 1.92 0 0 0 .64-.58 5.73 5.73 0 0 1 .47-.62 6.69 6.69 0 0 0 1-1.2q.35-.58.69-1.06a5.72 5.72 0 0 0 .55-1 1.64 1.64 0 0 1 .22-.33 1.33 1.33 0 0 0 .22-.38l.58-1.55a6.06 6.06 0 0 0 .13-.71 1.73 1.73 0 0 1 .27-.71v-.22a.87.87 0 0 0-.18-.44q-.31-.22-.62-.4a1.41 1.41 0 0 1-.49-.44h-.35a.24.24 0 0 0-.11.09.24.24 0 0 1-.11.09l-.33.35-.38.44a11.35 11.35 0 0 0-2.39 3.86q-.27.62-.51 1.29a6.21 6.21 0 0 0-.31 1.38zm0-4.39a.84.84 0 0 0 .16-.22.58.58 0 0 1 .2-.22.46.46 0 0 0-.37.42zm2.57-3a2.63 2.63 0 0 1-.33.35l-.38.35a10.26 10.26 0 0 0-1 1.29A8.85 8.85 0 0 0 147 16q.58-.89 1.15-1.66a9.33 9.33 0 0 1 1.46-1.53.38.38 0 0 0 .18-.31 1.09 1.09 0 0 1-.32.18zm-2.22 2.57a.48.48 0 0 0 .09-.27.36.36 0 0 0-.09.24zm.09-.27a.18.18 0 0 0 .09-.18v-.09a.34.34 0 0 0 0 .13.35.35 0 0 1-.1.13zm.09-.31q.44-.13.44-.44a.52.52 0 0 0-.29.22.85.85 0 0 1-.16.19zm.44-.44s.07-.06.13-.18c-.09.03-.13.09-.13.15zm.13-.18a1.94 1.94 0 0 0 .44-.4q-.45.15-.45.37zm.53-.58a.13.13 0 0 0-.09 0zm0 0a.13.13 0 0 0 .09 0c.06-.06.09-.1.09-.13s-.18.05-.18.11zm.22.8c.09 0 .14-.06.16-.09l.07-.13c-.15.03-.23.11-.23.2zm.36-.35a.13.13 0 0 0-.09 0zm.62-.67l.2-.18a.33.33 0 0 0 .11-.18q.22-.09.22-.22c-.09 0-.14 0-.16.07a.44.44 0 0 1-.11.16l-.31.22a3.9 3.9 0 0 1-.58.62v.13a1.38 1.38 0 0 0 .35-.27 1.4 1.4 0 0 0 .28-.37zm-.44 9.13a2.26 2.26 0 0 1 .29-.24.63.63 0 0 0 .2-.2 2.7 2.7 0 0 0 .69-.67l.47-.67q.53-.75 1-1.6a15 15 0 0 0 .84-1.69v-.27l-.35.75a27.3 27.3 0 0 1-1.73 2.66q-.22.36-.51.78a5.41 5.41 0 0 1-.64.78.4.4 0 0 0-.27.35zm.49-1c-.06 0-.09.06-.09.18a.46.46 0 0 0 .08-.22zm0-.09v.09a.13.13 0 0 0 .04-.13zm0 1.42h.16a.63.63 0 0 1 .11-.13s0-.06.09-.09a.69.69 0 0 0 .18-.13 1.49 1.49 0 0 0 .4-.53 6.17 6.17 0 0 0 .73-.86l.64-.91a.09.09 0 0 1 0-.07.09.09 0 0 0 0-.07l-.1.05a11.89 11.89 0 0 1-1.91 2.22.62.62 0 0 1 0 .27c-.19.05-.26.12-.26.21zm.22-1.6a1.48 1.48 0 0 0-.22.18q.21-.04.21-.22zm.13-.18l.89-1.24a6.67 6.67 0 0 0 .71-1.24v-.18l-.09.09q-.4.66-.8 1.29t-.85 1.2v.22c.15-.1.18-.1.18-.17zm.27-8.42l-.11.09s-.07.06-.07.09a.16.16 0 0 0 .22-.22zM152 18a.32.32 0 0 0-.18.31c.12 0 .18-.09.18-.18zm0-.13V18v-.09zm.4-7.23v-.09a.85.85 0 0 1-.22.16.38.38 0 0 0-.18.16zm-.22 6.92l-.13.09.13.09zm0 0c.15 0 .22-.09.22-.18h-.13zm.67-6.92h-.13a1 1 0 0 1-.2.16.19.19 0 0 0-.11.16V11v-.09l.18-.11.18-.11z"/><path class="cls-1" d="M177.67 9.62a5.68 5.68 0 0 1-.44 1.55q-.13.44-.24.86a3.55 3.55 0 0 1-.33.82q-.27.66-.51 1.31t-.47 1.31L175.1 17q-.18.58-.4 1.15a5.44 5.44 0 0 0-.31 1.2l-.09.71-.09.71a4.57 4.57 0 0 0 0 1.69.14.14 0 0 0 0 .18.4.4 0 0 1 0 .18c0 .18.09.27.18.27a1.73 1.73 0 0 0 .49-.13l.78-.51a5.43 5.43 0 0 0 .78-.64q.49-.35 1-.75a6.29 6.29 0 0 0 .82-.84q.58-.58 1.11-1.15a8.69 8.69 0 0 0 .93-1.2 6.22 6.22 0 0 1 .75-1 6.28 6.28 0 0 0 .75-1l.27-.27h.09c.06.15.14.22.24.22a.37.37 0 0 1 .29.18c.09.06.13.1.13.13s0 .07-.09.13a.73.73 0 0 1 0 .18.73.73 0 0 0 0 .18q-.62 1.06-1.29 2.11a20.94 20.94 0 0 1-1.51 2.06l-.78.84-.78.8a10 10 0 0 1-1.37 1.13q-.66.51-1.37 1a1.89 1.89 0 0 0-.35.18l-.31.18a1.37 1.37 0 0 1-.62.13.8.8 0 0 1-.49-.13 3.89 3.89 0 0 1-.49-.29l-.37-.33a3.44 3.44 0 0 1-.86-1.35 7.4 7.4 0 0 1-.33-1.57v-1.06q0-.53.07-1.06a2.12 2.12 0 0 0 0-.49.35.35 0 0 0 0-.22.3.3 0 0 1 .09-.22 2.17 2.17 0 0 1 .07-.53q.07-.27.16-.53l.11-.2a.39.39 0 0 0 .07-.2q.27-.89.6-1.75t.69-1.75a2.23 2.23 0 0 0 .29-.47 4.55 4.55 0 0 1 .24-.47.84.84 0 0 1 .07-.33l.16-.33 1.06-2.57a5.46 5.46 0 0 1 .2-.64q.11-.29.2-.6v-.22h-.09a1 1 0 0 0-.36.18 3.86 3.86 0 0 1-.42.44 4.85 4.85 0 0 0-.47.49l-1.69 2.08q-.66.89-1.22 1.73l-1.13 1.73q-.62.93-1.13 1.88l-1 1.88a11 11 0 0 0-.62 1.15q-.27.58-.49 1.15l-.18.27a1.82 1.82 0 0 1-.22.27l-.18.22a.36.36 0 0 1-.27.09h-.13a1.44 1.44 0 0 0-.29-.3.33.33 0 0 1-.22-.24c0-.09-.15-.16-.35-.22l-.2-.31a.53.53 0 0 1-.07-.4 1.59 1.59 0 0 1 0-.27 1.64 1.64 0 0 0 0-.27.48.48 0 0 0 .09-.27.71.71 0 0 1 .09-.31q0-.49.07-1a7.56 7.56 0 0 0 0-1 .77.77 0 0 0 0-.31 10.15 10.15 0 0 0 0-1.33V15a.42.42 0 0 0 0-.27h-.18l-.13.09q-.4.27-.78.55a7.37 7.37 0 0 0-.73.64l-1.51 1.53a13.44 13.44 0 0 0-1.37 1.66l-.73 1q-.38.49-.69 1l-.22.24-.18.2a.43.43 0 0 1-.31.13.38.38 0 0 1-.31-.18c-.06-.06-.1-.09-.13-.09q-.49 0-.4-.27a.67.67 0 0 0-.16-.18.15.15 0 0 1-.07-.13.53.53 0 0 1-.35-.62.79.79 0 0 1 .09-.22 2.47 2.47 0 0 1 .31-1.06.3.3 0 0 1 .07-.18.29.29 0 0 0 .07-.18 4 4 0 0 1 .33-1q.24-.51.51-1a17.74 17.74 0 0 1 .73-1.77q.42-.89.78-1.77a11.19 11.19 0 0 1 .67-1.51q.4-.75.75-1.51l.24-.4a2.37 2.37 0 0 1 .33-.4.44.44 0 0 1 .4-.22h.13a.39.39 0 0 0 .29.09.24.24 0 0 1 .24.22h.13a.09.09 0 0 0 .07 0h.07a.49.49 0 0 1 .31.18 1.2 1.2 0 0 1 0 .53v.18a4.27 4.27 0 0 1-.27.8l-.35.8-.49 1.46-.49 1a2.61 2.61 0 0 0-.2.53 2.59 2.59 0 0 1-.2.53.14.14 0 0 1-.09.13.18.18 0 0 0 .13 0l1-.84 1.29-.93a2.09 2.09 0 0 1 .58-.31 1.55 1.55 0 0 1 .49-.09h.18a.51.51 0 0 0 .35.09 1.52 1.52 0 0 1 .86.38 2.64 2.64 0 0 1 .51.78 2.32 2.32 0 0 1 .07.71 3.7 3.7 0 0 0 0 .71.88.88 0 0 1 0 .33.4.4 0 0 0 .07.29h.22q.22-.44.44-.84a9.52 9.52 0 0 1 .53-.84q.49-.75.91-1.46a15.87 15.87 0 0 1 1-1.42l.69-1q.33-.47.64-1l1.24-1.51a9.59 9.59 0 0 1 .82-1q.47-.49 1-.93a5.37 5.37 0 0 1 1.06-.75 1.1 1.1 0 0 1 .49-.13.5.5 0 0 1 .22 0 4 4 0 0 1 1 .27A1.75 1.75 0 0 1 178 7a2 2 0 0 1 0 .84V8a5.07 5.07 0 0 1-.16.84q-.08.43-.17.78zm-15.43 6.25a1.36 1.36 0 0 1-.16.2 1 1 0 0 1-.29.16h-.09l-.13.22c-.09.06-.13.1-.13.13l-.18.13.09.09-.18.2a1.12 1.12 0 0 0-.13.2 1.14 1.14 0 0 0-.07.16.37.37 0 0 1-.16.16.83.83 0 0 0 .24-.09l.16-.09 1.51-1.64a.88.88 0 0 0 .29-.22l.24-.27.29-.2a.34.34 0 0 0 .16-.29 1.19 1.19 0 0 0-.53.44l-.29.2a.5.5 0 0 0-.2.24zm-1 2a.2.2 0 0 0 .13-.22.26.26 0 0 0-.11.22zm.13-.27a1.23 1.23 0 0 0 .63-.6.73.73 0 0 0-.38.24zm.63-.6a.4.4 0 0 0 .27-.31.28.28 0 0 0-.27.31zm.22-1.15h-.09zm1.15-.22a1 1 0 0 0 .35-.35.46.46 0 0 0-.4.35 1.22 1.22 0 0 0-.49.35 5.42 5.42 0 0 1-.4.44c-.06 0-.09.06-.09.09s0 .07-.09.13c.15 0 .22-.1.22-.22a2.34 2.34 0 0 0 .44-.35zm.44-.49a.13.13 0 0 1 0 .09l.22-.18zm.49-.44a.72.72 0 0 0-.31.35l.44-.27a.18.18 0 0 0 0-.13s-.05.07-.11.07zm8.11-4.52a.18.18 0 0 1 0-.13l-.13.09zm.4-.62a.26.26 0 0 0-.13.22.13.13 0 0 1 0-.09.51.51 0 0 0 .16-.11zm.22-.22c-.15.09-.22.16-.22.22zm0 0a2 2 0 0 0 .4-.44.69.69 0 0 0-.27.09.48.48 0 0 0-.1.36zm.4-.49a.2.2 0 0 0 .13-.22.21.21 0 0 0-.1.24zm.13-.22q.22 0 .22-.22a.24.24 0 0 0-.11.09.63.63 0 0 1-.08.15zm.22-.22a.2.2 0 0 0 .13-.22.26.26 0 0 0-.1.23zm.84-1.15a.36.36 0 0 1-.27.09l-.09.27-.13.09-.27.22h.14a.36.36 0 0 1-.09.27 4.49 4.49 0 0 0 .69-.55l.6-.6.44-.31a.13.13 0 0 0 0-.09h-.13l-.4.35-.36.27h-.1zm0 .8a1 1 0 0 0 .35-.35.53.53 0 0 0-.27.36zm.35-.35a.82.82 0 0 0 .53-.44q-.4.13-.45.44zm2.39 13.88a.08.08 0 0 1-.09.09h.09c-.06.06-.09.1-.09.13a.13.13 0 0 1 0 .09l-1.6 1.33a.55.55 0 0 0 .4-.18 14.36 14.36 0 0 0 1.57-1.26q.69-.64 1.35-1.4a.13.13 0 0 0 0-.09.35.35 0 0 1 0-.13l-.31.13v-.18l-.09.18h.09a2.56 2.56 0 0 1-.2.33.73.73 0 0 1-.38.24c.06-.06.09-.1.09-.13L178 21l-.09.22-.27.13zM176 23.68a2.06 2.06 0 0 0 .58-.38 4.17 4.17 0 0 1 .62-.47.25.25 0 0 0 .09-.18q.49-.22.49-.49a2.53 2.53 0 0 0-.53.44l-1.15.8zm2.13-1.86c-.06 0-.09.1-.09.22a.3.3 0 0 0 .12-.23zm.27-.13a.2.2 0 0 0 .13-.22l-.22.27zm.93-1.73c-.15.09-.22.16-.22.22a.24.24 0 0 0 .11-.09.63.63 0 0 1 .13-.09z"/><path class="cls-1" d="M193.54 14.1a1.7 1.7 0 0 1 .58-.22 2.6 2.6 0 0 0 .62-.22l-.74 1.1h-.09l-.67.44q-.62.58-1.29 1.15l-1.24 1.06-1.46 1.26a14 14 0 0 1-1.6 1.18 13.87 13.87 0 0 0-1.65 1.32 8.89 8.89 0 0 1-1.71 1.22 4.54 4.54 0 0 0-.4.27 1.71 1.71 0 0 1-.4.22 3.11 3.11 0 0 1-1 .13h-.42l-.42-.07-.51-.27a1.36 1.36 0 0 1-.42-.35 1.14 1.14 0 0 1-.62-.89 3.15 3.15 0 0 0 0-.51v-.47l.13-1.15h.09a6 6 0 0 1 .31-1.17 6.05 6.05 0 0 0 .31-1.18 8.44 8.44 0 0 1 .6-1.49q.38-.73.73-1.49l.51-1a4.37 4.37 0 0 1 .69-1l.09-.16a.66.66 0 0 1 .18-.16.54.54 0 0 1 .4-.13.85.85 0 0 1 .27 0 .18.18 0 0 1 0 .13.13.13 0 0 0 0 .09 2.09 2.09 0 0 0-.27.31l-.67 1.24-.18.49q.27-.09.31-.27a.78.78 0 0 1 .22-.35l.75-1.37a1 1 0 0 1 .31-.27l.09.09a.3.3 0 0 0 .09.22.18.18 0 0 1 .13 0 .16.16 0 0 1 .18.18s0 .06-.07.09-.07.06-.07.09a2 2 0 0 1-.31 1l-.8 1.93q-.4 1-.75 1.93-.18.58-.4 1.15t-.4 1.2l-.49 2.08a.48.48 0 0 0 .13.35.35.35 0 0 0 .31-.13l.55-.27a1.76 1.76 0 0 0 .51-.35q.75-.58 1.42-1.15t1.42-1.15q.84-.62 1.55-1.2l1.46-1.2q.89-.66 1.73-1.22t1.84-1.37l1-.69a8.67 8.67 0 0 0 .89-.69h.11q.22 0 .22.35a1.4 1.4 0 0 1-.22.49 1.09 1.09 0 0 1-.49.4l-.49.2a1.75 1.75 0 0 0-.48.25zm-10.54.49a.38.38 0 0 0 .18-.31 4.07 4.07 0 0 0-.27.31zm.27-1.33c-.06.06-.06.09 0 .09v-.09zm.09.58a.18.18 0 0 0 0 .13v.13a.77.77 0 0 0-.09.22c.15-.15.22-.25.22-.31zm.09-.8v-.13zm0 .13zm.53-1.11c.12-.06.18-.12.18-.18zm2.62-5.28v.27l.27-.18c.06-.06.1-.09.13-.09h.18c-.06.06 0 .09.09.09a.08.08 0 0 1 .09.09v.09l-.53.84q-.13.22-.24.38a1 1 0 0 0-.16.38V9a.14.14 0 0 1-.09.13l-.18.09h-.13a1.76 1.76 0 0 1-.42-.38l-.33-.42V8.2a2.83 2.83 0 0 1 .4-.82l.53-.73.09-.09a.09.09 0 0 0 .07 0 .18.18 0 0 1 .11 0c.09 0 .13.06.13.18zm.75 12.1a1.38 1.38 0 0 1 .24-.13.64.64 0 0 0 .24-.22.78.78 0 0 0-.45.36zm.4.31a.24.24 0 0 0-.11.09l-.07.09v-.09zm.36-.27c-.18 0-.27.07-.27.22h-.09q.25.06.38-.21zm-.27-.4a1 1 0 0 0 .33-.16 1.92 1.92 0 0 0 .24-.2.6.6 0 0 0-.54.37zm.27.4h.09s.16-.1.31-.31a.46.46 0 0 0-.38.32zm.31-.75a1.7 1.7 0 0 0 .42-.24.43.43 0 0 0 .2-.33l-.29.22a2.6 2.6 0 0 0-.31.36zm.13.49c.12-.06.18-.13.18-.22s-.09.06-.09.09-.01.08-.06.13zm.18-.22q.4 0 .4-.36zm.89-1.37a.69.69 0 0 0 .44-.2l.31-.38a.85.85 0 0 0-.67.53.85.85 0 0 0-.42.22 2.88 2.88 0 0 0-.24.35.93.93 0 0 0 .6-.52zm-.49 1c.09 0 .16-.06.22-.18s-.11.11-.2.2zm.22-.18a.64.64 0 0 0 .27-.09.18.18 0 0 0 0-.13zm.71-.53c-.24.06-.35.16-.35.31a.23.23 0 0 0 .2-.09zm0 0a.13.13 0 0 0 0-.09.34.34 0 0 1 0-.13c-.06.06-.09.1-.09.13zm.09-.27a.25.25 0 0 0 .27-.22zm.44-.8a.69.69 0 0 0 .18-.13A1.48 1.48 0 0 1 191 16a.54.54 0 0 0-.31.07l-.22.2a.3.3 0 0 0-.09.22 1 1 0 0 0 .23-.17zm0 .58a.27.27 0 0 0 .2-.07l.16-.16a.68.68 0 0 0-.49.22zm.4-.27c.12-.06.18-.13.18-.22s-.17.16-.17.25zm0-.62a.5.5 0 0 0 .13-.09l.13-.13a.4.4 0 0 0-.25.24zm.13.4q.13 0 .13-.18c-.06.03-.1.09-.1.2zm.18-.62a.27.27 0 0 0 .31-.22h-.13a.08.08 0 0 0-.09.09.26.26 0 0 1-.09.18zm.09.44a.24.24 0 0 0 .27-.18h-.09c-.06 0-.15.06-.27.18zm.22-.67a.16.16 0 0 0 .18-.18.27.27 0 0 0-.16.21zm0 .49a.57.57 0 0 0 .36-.27.51.51 0 0 0-.2.11zm.13-.67a.79.79 0 0 0 .53-.36.68.68 0 0 0-.46.39zm.4.27c-.06 0-.12.06-.18.18l.09-.07a.24.24 0 0 0 .16-.08zm.58-.93c-.27 0-.41.13-.44.31a.55.55 0 0 0 .22-.13 1.48 1.48 0 0 1 .29-.15zm-.35.71l.07-.09a.64.64 0 0 1 .11-.13.21.21 0 0 0-.12.25zm.22-.27a.34.34 0 0 0 .35-.22.5.5 0 0 0-.2.11zm.13-.44a.28.28 0 0 0 .07-.11.43.43 0 0 1 .11-.16c-.15.06-.22.1-.22.13a.09.09 0 0 0 0 .07.09.09 0 0 1 .11.1zm.35-.31c.12-.06.18-.13.18-.22zm.67-.13s0 .07-.09.13z"/><path class="cls-1" d="M208.88 15.38l.16-.13.16-.13q-.13.58-.29 1.11a8.56 8.56 0 0 0-.24 1.11h-.13l-.22.18a1.75 1.75 0 0 1-.33.33 1 1 0 0 0-.29.33 2 2 0 0 1-.53.58q-1.2 1.11-2.24 2.15t-2 2.06a1.73 1.73 0 0 0-.53.58.86.86 0 0 1-.4.4 1.8 1.8 0 0 0-.27.16l-.27.16a1 1 0 0 1-.49.09 1.57 1.57 0 0 1-.44 0 5.76 5.76 0 0 1-.75-.31l-.78-.55-.31-.49a1.37 1.37 0 0 1-.18-.49q0-.4-.09-.84a3.29 3.29 0 0 1 0-.93q.09-.58.13-1.13a4 4 0 0 1 .27-1.13.31.31 0 0 1 0-.13.31.31 0 0 0 0-.13 4.26 4.26 0 0 1 .18-.86 8.13 8.13 0 0 1 .35-.91q.22-.58.44-1.11t.44-1.15q.22-.49.44-.91a9.19 9.19 0 0 0 .4-.86.13.13 0 0 0 0-.09.34.34 0 0 1 0-.13l-.49.22a.91.91 0 0 0-.35.27 9.77 9.77 0 0 0-1.49 1q-.64.56-1.26 1.18a8.71 8.71 0 0 1-.67.6 8.66 8.66 0 0 0-.67.6 8.93 8.93 0 0 0-.67.64l-.67.69a5.36 5.36 0 0 0-.6.75l-.69 1-.69 1a9.18 9.18 0 0 1-.6.8 2.86 2.86 0 0 1-.33.44 1.52 1.52 0 0 0-.29.44.58.58 0 0 1-.11.16l-.11.11a.39.39 0 0 1-.18 0c-.09 0-.13 0-.13-.09a.43.43 0 0 0-.31-.13l-.18-.13c0-.09-.09-.16-.27-.22h-.09s-.21-.18-.18-.27v-.17c0-.15.05-.28.07-.4a.63.63 0 0 1 .2-.35.51.51 0 0 1 .09-.36l.24-.82q.15-.51.35-1l.4-1 .33-.8a3 3 0 0 0 .27-.6 6.08 6.08 0 0 1 .22-.6.21.21 0 0 1 .07-.16.58.58 0 0 0 .11-.16v-.09h-.09q.13 0 .2-.27a2.18 2.18 0 0 1 .11-.31.72.72 0 0 0 .13-.44v-.27a.76.76 0 0 1 .16-.31 1.64 1.64 0 0 0 .2-.31.51.51 0 0 0 .16-.24.79.79 0 0 1 .07-.2v-.27a.72.72 0 0 1 .24-.33 1 1 0 0 0 .24-.24 4.52 4.52 0 0 1 .8-1.15c0-.12.07-.18.13-.18h.07a.09.09 0 0 0 .07 0l.53.18a1 1 0 0 1 .35.13 1.79 1.79 0 0 1 .27.22.36.36 0 0 1 0 .22v.4q-.09.36-.22.75a5.81 5.81 0 0 1-.31.75 8.62 8.62 0 0 1-1.06 2.44.47.47 0 0 0-.09.27.85.85 0 0 1 0 .27 3.07 3.07 0 0 0 .53-.49l.69-.62a4.18 4.18 0 0 0 .55-.62l.84-.73.89-.73a18.14 18.14 0 0 1 1.57-1.24 18.38 18.38 0 0 1 1.71-1.06 1.39 1.39 0 0 1 .71-.31 1 1 0 0 1 .31 0l.35.13.38.11a.75.75 0 0 1 .29.16 1.24 1.24 0 0 1 .58 1 1.77 1.77 0 0 0-.18.8.76.76 0 0 0 0 .31 6.35 6.35 0 0 0-.38.69 3.75 3.75 0 0 0-.24.69 11.21 11.21 0 0 1-.51 1.13 11 11 0 0 0-.51 1.13 13.35 13.35 0 0 0-.78 2.15l-.55 2.11q-.09.49-.13 1t-.09.86a.24.24 0 0 0 0 .2.56.56 0 0 1 0 .2.08.08 0 0 0 .09.09.39.39 0 0 0 .18 0 .18.18 0 0 0 .13 0 10.07 10.07 0 0 1 1.15-.91 4.93 4.93 0 0 0 1.11-1l2.26-2.19q1.11-1.09 2.35-2.19a6.51 6.51 0 0 0 .55-.53zm-18 4.83a.18.18 0 0 0 0 .13zm0 0a1.5 1.5 0 0 0 .22-.35l.27-.55a4.68 4.68 0 0 0 .22-.58 1.72 1.72 0 0 0 .09-.38 1.17 1.17 0 0 0-.2.33l-.24.55a6 6 0 0 0-.22.6 3.24 3.24 0 0 1-.14.39zm1.2-2q.35-.75.71-1.57t.71-1.57a5.77 5.77 0 0 0 .51-1 8.85 8.85 0 0 1 .47-1 1.43 1.43 0 0 1 .09-.35l-.22.22-.18.33a1.27 1.27 0 0 0-.13.33q-.62 1.06-1.11 2.08a16.68 16.68 0 0 0-.84 2.13l-.16.42-.24.62c-.09.22-.17.44-.24.64a1.55 1.55 0 0 0-.11.44h.09a1.39 1.39 0 0 1 .09-.4 4 4 0 0 1 .22-.53l.24-.49a.87.87 0 0 0 .1-.24zm-.22-.67a1.6 1.6 0 0 0-.13.71.65.65 0 0 0 .13-.4.29.29 0 0 0 0-.25zm.18-.49l-.09.2-.09.24.11-.13a.29.29 0 0 0 .07-.18zm.35-.71a.6.6 0 0 0 .18-.44.66.66 0 0 0-.18.31v.13a1.35 1.35 0 0 0-.35.71.91.91 0 0 0 .4-.53.09.09 0 0 0 0-.07s-.05.01-.05-.05zm.18-.44l.2-.2a.34.34 0 0 0 .11-.24v-.18a2 2 0 0 0-.31.49zm.49-.8a.27.27 0 0 1-.11.07.1.1 0 0 0-.07.11c.12.03.17-.03.17-.12zm.35-.67a1.12 1.12 0 0 0-.35.67 2 2 0 0 0 .2-.24.56.56 0 0 0 .11-.33.13.13 0 0 1 .04-.03zm0 0a.18.18 0 0 0 0-.13.18.18 0 0 0 0 .2zm.36-.89a1.07 1.07 0 0 0-.36.58v.13a3.07 3.07 0 0 1 .2-.27.47.47 0 0 0 .11-.31.09.09 0 0 1 0-.07.09.09 0 0 0 .04.01zm-.36 5v-.09zm.13-.27q.27 0 .27-.27a.4.4 0 0 0-.27.35zm.27-4.92a.09.09 0 0 1 0 .07.17.17 0 0 0 0 .11l.09-.09s-.09.02-.09-.01zm.13-.18c-.09.06-.13.12-.13.18s.09-.06.09-.09a.13.13 0 0 1 .04 0zm0 4.74a.55.55 0 0 0 .22-.13s0-.07-.09-.13a1 1 0 0 0-.18.35zm0-.67a.43.43 0 0 0 .31-.35c-.25.21-.31.33-.31.44zm.13-4.26a.18.18 0 0 0 0 .13.09.09 0 0 1 0-.07.09.09 0 0 0 0 .04zm0-.13a.13.13 0 0 0 0 .09zm0 4.66a.41.41 0 0 0 .31-.27 1 1 0 0 0-.26.36zm.62-1.15a.51.51 0 0 0-.31.44.55.55 0 0 0 .36-.35zm0-4.12a.61.61 0 0 0-.13.44.26.26 0 0 0 .13-.22.19.19 0 0 1 0-.09.16.16 0 0 0 0-.04zm-.09 4.83a.42.42 0 0 0 .27-.22q-.13.09-.27.31zm.18-5a.26.26 0 0 0-.09.18.18.18 0 0 0 .09-.1zm.49 3.81a.53.53 0 0 0-.35.35c.23-.03.35-.15.35-.23zm-.22.75a.4.4 0 0 0 .36-.4.53.53 0 0 0-.41.48zm.75-1.33q-.27.13-.27.27v.09a.43.43 0 0 0 .27-.28zm-.18.75a.53.53 0 0 0 .36-.36c-.24.15-.36.31-.36.45zm1.11-1.46q-.49.22-.58.49a2.49 2.49 0 0 0 .33-.2.77.77 0 0 0 .25-.21zm-.49.84c.27-.09.4-.21.4-.35a1.62 1.62 0 0 0-.4.44zm.89-1.37a1.92 1.92 0 0 0 .53-.33l.44-.42.09-.13a3 3 0 0 0-.93.75zm.36.35l.71-.62q.35-.31.67-.62a.36.36 0 0 1-.16 0 .36.36 0 0 0-.16 0l-1 .89a.46.46 0 0 0-.06.44zm1.51-1.73a.85.85 0 0 0-.49.27.74.74 0 0 0 .49-.27zm1-.35a.2.2 0 0 0-.22.13s0-.05.07-.07a.43.43 0 0 0 .21-.06zm2.17 10a.4.4 0 0 0-.27.27q.33-.08.33-.25zm-.27.8a.4.4 0 0 0 .27-.27.56.56 0 0 0-.17.28zm.44-1q-.18 0-.18.13h.18zm-.18.71zm.18 0v-.09h.09-.18a.13.13 0 0 0 0 .09zm.49-.93c-.24.09-.37.16-.4.22l.2-.09a.45.45 0 0 0 .26-.14zm-.13.49q-.27.09-.27.31zm0 0a.2.2 0 0 0 .22-.22c-.15 0-.22.09-.22.18zm.49-.75c-.15 0-.24.07-.27.11l-.09.16a.38.38 0 0 0 .22-.11 1 1 0 0 1 .2-.17zm-.27.53a.43.43 0 0 0 .36-.27.81.81 0 0 0-.28.26zm.27-.53a.71.71 0 0 0 .09-.31c-.09.06-.13.12-.13.18a.18.18 0 0 0 .1.12zm.09-.31a.69.69 0 0 0 .18-.13.26.26 0 0 0 .09-.18.33.33 0 0 0-.21.3zm0 .58c.12 0 .18-.07.2-.11a.43.43 0 0 1 .11-.16q-.21.07-.25.25zm.27-.89a.89.89 0 0 0 .44-.27l-.27.11a.37.37 0 0 0-.12.13zm0 .58a.13.13 0 0 0 .09 0h-.09a.13.13 0 0 0 .1-.02zm.22-.27l.11-.13a1.2 1.2 0 0 0 .11-.18q-.08.03-.12.3zm.18-.58q.27-.13.27-.31-.08.03-.22.3zm0 .27l.11-.09.11-.09-.16.07a.48.48 0 0 0 .08.08zm.22-.58c.15-.06.22-.12.22-.18v-.09a.42.42 0 0 0-.08.26zm0 .4q.35-.09.36-.27a.43.43 0 0 0-.22.26zm.22-.67a.4.4 0 0 0 .27-.27q-.12.09-.12.26zm.13.36q.27-.09.27-.27a.4.4 0 0 0-.12.26zm.13-.62a.68.68 0 0 0 .18-.13l.18-.18-.22.11q-.13.07-.13.16zm.13.36a.51.51 0 0 0 .18-.27.24.24 0 0 0-.03.25zm.22-.67a.31.31 0 0 0 .31-.22 24.16 24.16 0 0 0-.18-.09zm0 .4a.15.15 0 0 0 .13-.07 1 1 0 0 1 .13-.16c-.18.06-.27.1-.27.13zm.31-.62a.4.4 0 0 0 .31-.27h-.22s0 .07.09.13a.18.18 0 0 0-.02.12zm0 .35q.35-.13.36-.31a1.33 1.33 0 0 0-.2.16zm.53-1a.46.46 0 0 0 .4-.27h-.27c-.06.09-.1.13-.13.13l-.18.09h-.18l.13.09V19a.38.38 0 0 0 .18-.31.13.13 0 0 1 .21.02zm-.18.71a.52.52 0 0 0 .31-.27q-.15-.03-.15.24zm.31-.27a.31.31 0 0 0 .22-.31c-.15.09-.22.16-.22.22zm.22-.35l.2-.11a.39.39 0 0 0 .16-.16l-.2.11a.39.39 0 0 0 0 .13zm2.26-2.62a.13.13 0 0 0-.09 0v.09l-.27.18-.4.22a.51.51 0 0 1-.07.11l-.11.11s0 .06-.09.09l-.31.13-.22.18h-.13v.22a.18.18 0 0 0-.13 0h-.22l.18.09.09.18h-.22a.13.13 0 0 0 0 .09v.18a.54.54 0 0 0 .4-.27v-.09a.2.2 0 0 0 0-.09.19.19 0 0 1 0-.09c.12 0 .18-.06.18-.09l.8-.71.84-.75a.26.26 0 0 1 .09-.18zm-1.86 2.35a.29.29 0 0 1 .11-.07.1.1 0 0 0 .07-.11c.04 0-.02.06-.02.15zm.31-.22c.15-.06.22-.13.22-.22-.09 0-.14.07-.16.11zm.13-.31h.09a.13.13 0 0 1 0-.09.12.12 0 0 0 .08.06zm.22-.27c.15-.06.22-.12.22-.18l-.13.09c.11 0 .08.03.08.06zm.35-.27a.18.18 0 0 0 .09-.18zm.22-.18l.18-.11.18-.16a.53.53 0 0 0-.18.25zm.44-.49h-.09a.2.2 0 0 1 0 .09.19.19 0 0 0 0 .09zm.22.58z"/></g></g></svg>