<svg viewBox="0 0 60 60" xmlns="http://www.w3.org/2000/svg"><path d="M35.5 31a2.21 2.21 0 0 1-1.556-.642l-8.303-8.303C25.228 21.642 25 21.09 25 20.5s.228-1.142.642-1.556l2.772-2.772A4.024 4.024 0 0 1 31.242 15h5.172L41 19.586v5.172a4.024 4.024 0 0 1-1.172 2.828l-2.772 2.772A2.184 2.184 0 0 1 35.5 31zm-4.258-14c-.526 0-1.042.214-1.414.586l-2.772 2.772A.195.195 0 0 0 27 20.5c0 .039.01.096.056.142l8.303 8.303c.051.051.12.055.141.055.086 0 .128-.042.142-.056l2.772-2.772c.372-.372.586-.888.586-1.414v-4.344L35.586 17z"/><path d="M40.707 20.707l-1.414-1.414 2.172-2.172a1.83 1.83 0 0 0-2.586-2.586l-2.172 2.172-1.414-1.414 2.172-2.172A3.802 3.802 0 0 1 40.172 12 3.833 3.833 0 0 1 44 15.828a3.804 3.804 0 0 1-1.121 2.707z"/><path d="M51.484 48.347l-1.875-.694 5.57-15.06-13.886-13.886 1.414-1.414 14.792 14.792z"/><path d="M58 54H44v-4c0-1.654 1.346-3 3-3h8c1.654 0 3 1.346 3 3zm-12-2h10v-2a1 1 0 0 0-1-1h-8a1 1 0 0 0-1 1zm-9-5H5c-1.654 0-3-1.346-3-3V22c0-1.654 1.346-3 3-3h18v2H5a1 1 0 0 0-1 1v22a1 1 0 0 0 1 1h32a1 1 0 0 0 1-1V32h2v12c0 1.654-1.346 3-3 3z"/><path d="M14.65 52.764l1.696-7 1.944.471-1.696 7zm9.062-6.531l1.944-.471 1.695 7-1.944.47z"/><path d="M13 52h16v2H13zM2 56h50v2H2zm52 0h4v2h-4zM15 7h4v2h-4zm8 0h4v2h-4zm-3 3h2v4h-2zm0-8h2v4h-2zm26 8h5v2h-5zm9 0h5v2h-5zm-3 3h2v5h-2zm0-9h2v5h-2zM3 39h36v2H3z"/></svg>