<svg viewBox="0 0 60 60" xmlns="http://www.w3.org/2000/svg"><path d="M18 53.414l-6-6V13c0-2.206 1.794-4 4-4h4c2.206 0 4 1.794 4 4v34.414zm-4-6.828l4 4 4-4V13c0-1.103-.897-2-2-2h-4c-1.103 0-2 .897-2 2z"/><path d="M13 16h7v2h-7zM8 48H6V18c0-2.206 1.794-4 4-4h3v2h-3c-1.103 0-2 .897-2 2zm46 0h-2V18c0-1.103-.897-2-2-2h-2.003v-2H50c2.206 0 4 1.794 4 4z"/><path d="M52 57H8c-3.309 0-6-2.691-6-6v-4h8v2H4v2c0 2.206 1.794 4 4 4h44c2.206 0 4-1.794 4-4v-2H26v-2h32v4c0 3.309-2.691 6-6 6z"/><path d="M27 51h6v2h-6zm19-6H23v-2h23a1 1 0 0 0 1-1V7a1 1 0 0 0-1-1H19a1 1 0 0 0-1 1v3h-2V7c0-1.654 1.346-3 3-3h27c1.654 0 3 1.346 3 3v35c0 1.654-1.346 3-3 3z"/><path d="M45 8h-2v2h2zm-4 0h-2v2h2zM28 24h-2v2h2zm0 4h-2v2h2zm9-20h-2v2h2zm-11 4h22v2H26zm0 8h18v2H26zm6 4h12v2H32zm0 4h12v2H32z"/></svg>