<svg viewBox="0 0 60 60" xmlns="http://www.w3.org/2000/svg"><path d="M34 32h-8c-1.103 0-2-.897-2-2v-3.26c0-.238-.086-.47-.24-.651l-2.266-2.643A14.523 14.523 0 0 1 18 14c0-6.617 5.383-12 12-12s12 5.383 12 12c0 3.463-1.241 6.818-3.495 9.446l-2.264 2.643a1.006 1.006 0 0 0-.241.651V30c0 1.103-.897 2-2 2zM30 4c-5.514 0-10 4.486-10 10 0 2.986 1.07 5.879 3.013 8.146l2.266 2.643c.464.542.721 1.235.721 1.951V30h8v-3.26c0-.716.257-1.409.723-1.952l2.264-2.643A12.52 12.52 0 0 0 40 14c0-5.514-4.486-10-10-10z"/><path d="M25 26h7v2h-7zm4 18h2v14h-2zM7 9h5v2H7zm1.691-5.894l1.414-1.415 3.204 3.203-1.415 1.415zm0 13.788l3.203-3.203 1.414 1.415-3.203 3.203zm19.414 5.415l-1.414-1.414L31.586 16h-8l8.309-8.309 1.414 1.414L28.414 14h8zM48 9h5v2h-5zm-1.31-4.105l3.204-3.203 1.414 1.414-3.203 3.203zm0 10.211l1.415-1.414 3.203 3.203-1.414 1.414z"/><path d="M30 59c-.254 0-.501-.047-.734-.14l-17.994-6.998A1.99 1.99 0 0 1 10 50v-9.029h2V50l17.996 6.999L48 50.001v-9.03h2V50c0 .83-.5 1.563-1.274 1.864l-18.001 7A2.008 2.008 0 0 1 30 59zm0-19.935l-19.346-7.127.692-1.876L30 36.935l18.654-6.873.692 1.876z"/><path d="M10.67 30.055l9.814-3.42.658 1.888-9.813 3.42zm28.188-1.531l.659-1.888 9.812 3.422-.659 1.888z"/><path d="M22 47c-.296 0-.581-.063-.848-.188L6.154 39.813A2.01 2.01 0 0 1 5 38c0-.436.138-.851.398-1.199l4.318-5.757-3.233-3.74A2.013 2.013 0 0 1 6 26c0-.842.533-1.6 1.326-1.884l9.137-3.263.672 1.883L8 25.999l4.283 4.957L6.999 38 22 45l7.273-7.688 1.453 1.375-7.273 7.687A2.001 2.001 0 0 1 22 47z"/><path d="M38 47a2 2 0 0 1-1.455-.629l-7.271-7.684 1.453-1.375L38 44.999 53 38l-5.283-7.044 4.286-4.961-9.138-3.259.672-1.883 9.135 3.263A2.005 2.005 0 0 1 54 26c0 .476-.171.937-.48 1.299l-3.236 3.745 4.317 5.757c.261.348.399.763.399 1.199a2.01 2.01 0 0 1-1.154 1.813l-15 7c-.265.124-.55.187-.846.187z"/></svg>