<svg viewBox="0 0 384 384" xmlns="http://www.w3.org/2000/svg"><path d="M32.2 253.3c1.3-7.9 8.7-13.3 16.6-13.3h18a32 32 0 0 1 29.4 19.4l9.5 22.1a24 24 0 0 0 22.1 14.5H144a7.9 7.9 0 0 0 7.9-7.3c1.2-15.3 5.7-30.2 16.7-40.9l12.1-11.8C127.2 223.5 88 183.5 88 136c0-18.3 5.8-35.5 16-50.4V49.9a75.8 75.8 0 0 1 8-33.9h8.8a56 56 0 0 1 39.6 16.4l7.3 7.3a156.1 156.1 0 0 1 96.7 0l7.3-7.3A56 56 0 0 1 311.2 16h8.8a75.8 75.8 0 0 1 8 33.9v35.7c10.2 14.9 16 32.1 16 50.4 0 47.5-39.2 87.5-92.7 100l11.8 11.5a56 56 0 0 1 16.9 40.1V376H152v-32a8 8 0 0 0-8-8h-22.7a48 48 0 0 1-44.9-31.1L68 282.4A16 16 0 0 0 53 272h-5a16 16 0 0 1-15.8-18.7z"/></svg>