<svg xmlns="http://www.w3.org/2000/svg"><symbol id="icon-facebook" viewBox="0 0 384 384"><path d="M312 40H72a32 32 0 0 0-32 32v240a32 32 0 0 0 32 32h112V240h-40v-56h40v-40a72 72 0 0 1 72-72h32v56h-32a16 16 0 0 0-16 16v40h51.3L277 240h-37v104h72a32 32 0 0 0 32-32V72a32 32 0 0 0-32-32z"/></symbol><symbol id="icon-github" viewBox="0 0 384 384"><path d="M32.2 253.3c1.3-7.9 8.7-13.3 16.6-13.3h18a32 32 0 0 1 29.4 19.4l9.5 22.1a24 24 0 0 0 22.1 14.5H144a7.9 7.9 0 0 0 7.9-7.3c1.2-15.3 5.7-30.2 16.7-40.9l12.1-11.8C127.2 223.5 88 183.5 88 136c0-18.3 5.8-35.5 16-50.4V49.9a75.8 75.8 0 0 1 8-33.9h8.8a56 56 0 0 1 39.6 16.4l7.3 7.3a156.1 156.1 0 0 1 96.7 0l7.3-7.3A56 56 0 0 1 311.2 16h8.8a75.8 75.8 0 0 1 8 33.9v35.7c10.2 14.9 16 32.1 16 50.4 0 47.5-39.2 87.5-92.7 100l11.8 11.5a56 56 0 0 1 16.9 40.1V376H152v-32a8 8 0 0 0-8-8h-22.7a48 48 0 0 1-44.9-31.1L68 282.4A16 16 0 0 0 53 272h-5a16 16 0 0 1-15.8-18.7z"/></symbol><symbol id="icon-skype" viewBox="0 0 384 384"><path d="M48.7 177.3A92.3 92.3 0 0 1 124 32a91.4 91.4 0 0 1 53.1 16.8A145.7 145.7 0 0 1 192 48a144 144 0 0 1 144 144 145.7 145.7 0 0 1-.8 15A92 92 0 0 1 207 335.2a145.7 145.7 0 0 1-15 .8A144 144 0 0 1 48 192a145.7 145.7 0 0 1 .7-14.7z"/><path d="M128 232v4c0 24.3 28.7 44 64 44s64-19.7 64-44-28.7-44-64-44-64-19.7-64-44 28.7-44 64-44 64 19.7 64 44v4" fill="none" stroke="#fff" stroke-miterlimit="10" stroke-width="16"/></symbol></svg>