<svg xmlns="http://www.w3.org/2000/svg"><symbol id="icon-facebook" viewBox="0 0 384 384"><path d="M312 40H72a32 32 0 0 0-32 32v240a32 32 0 0 0 32 32h112V240h-40v-56h40v-40a72 72 0 0 1 72-72h32v56h-32a16 16 0 0 0-16 16v40h51.3L277 240h-37v104h72a32 32 0 0 0 32-32V72a32 32 0 0 0-32-32z"/></symbol><symbol id="icon-github" viewBox="0 0 384 384"><path d="M32.2 253.3c1.3-7.9 8.7-13.3 16.6-13.3h18a32 32 0 0 1 29.4 19.4l9.5 22.1a24 24 0 0 0 22.1 14.5H144a7.9 7.9 0 0 0 7.9-7.3c1.2-15.3 5.7-30.2 16.7-40.9l12.1-11.8C127.2 223.5 88 183.5 88 136c0-18.3 5.8-35.5 16-50.4V49.9a75.8 75.8 0 0 1 8-33.9h8.8a56 56 0 0 1 39.6 16.4l7.3 7.3a156.1 156.1 0 0 1 96.7 0l7.3-7.3A56 56 0 0 1 311.2 16h8.8a75.8 75.8 0 0 1 8 33.9v35.7c10.2 14.9 16 32.1 16 50.4 0 47.5-39.2 87.5-92.7 100l11.8 11.5a56 56 0 0 1 16.9 40.1V376H152v-32a8 8 0 0 0-8-8h-22.7a48 48 0 0 1-44.9-31.1L68 282.4A16 16 0 0 0 53 272h-5a16 16 0 0 1-15.8-18.7z"/></symbol><symbol id="icon-idea" viewBox="0 0 60 60"><path d="M34 32h-8c-1.103 0-2-.897-2-2v-3.26c0-.238-.086-.47-.24-.651l-2.266-2.643A14.523 14.523 0 0 1 18 14c0-6.617 5.383-12 12-12s12 5.383 12 12c0 3.463-1.241 6.818-3.495 9.446l-2.264 2.643a1.006 1.006 0 0 0-.241.651V30c0 1.103-.897 2-2 2zM30 4c-5.514 0-10 4.486-10 10 0 2.986 1.07 5.879 3.013 8.146l2.266 2.643c.464.542.721 1.235.721 1.951V30h8v-3.26c0-.716.257-1.409.723-1.952l2.264-2.643A12.52 12.52 0 0 0 40 14c0-5.514-4.486-10-10-10z"/><path d="M25 26h7v2h-7zm4 18h2v14h-2zM7 9h5v2H7zm1.691-5.894l1.414-1.415 3.204 3.203-1.415 1.415zm0 13.788l3.203-3.203 1.414 1.415-3.203 3.203zm19.414 5.415l-1.414-1.414L31.586 16h-8l8.309-8.309 1.414 1.414L28.414 14h8zM48 9h5v2h-5zm-1.31-4.105l3.204-3.203 1.414 1.414-3.203 3.203zm0 10.211l1.415-1.414 3.203 3.203-1.414 1.414z"/><path d="M30 59c-.254 0-.501-.047-.734-.14l-17.994-6.998A1.99 1.99 0 0 1 10 50v-9.029h2V50l17.996 6.999L48 50.001v-9.03h2V50c0 .83-.5 1.563-1.274 1.864l-18.001 7A2.008 2.008 0 0 1 30 59zm0-19.935l-19.346-7.127.692-1.876L30 36.935l18.654-6.873.692 1.876z"/><path d="M10.67 30.055l9.814-3.42.658 1.888-9.813 3.42zm28.188-1.531l.659-1.888 9.812 3.422-.659 1.888z"/><path d="M22 47c-.296 0-.581-.063-.848-.188L6.154 39.813A2.01 2.01 0 0 1 5 38c0-.436.138-.851.398-1.199l4.318-5.757-3.233-3.74A2.013 2.013 0 0 1 6 26c0-.842.533-1.6 1.326-1.884l9.137-3.263.672 1.883L8 25.999l4.283 4.957L6.999 38 22 45l7.273-7.688 1.453 1.375-7.273 7.687A2.001 2.001 0 0 1 22 47z"/><path d="M38 47a2 2 0 0 1-1.455-.629l-7.271-7.684 1.453-1.375L38 44.999 53 38l-5.283-7.044 4.286-4.961-9.138-3.259.672-1.883 9.135 3.263A2.005 2.005 0 0 1 54 26c0 .476-.171.937-.48 1.299l-3.236 3.745 4.317 5.757c.261.348.399.763.399 1.199a2.01 2.01 0 0 1-1.154 1.813l-15 7c-.265.124-.55.187-.846.187z"/></symbol><symbol id="icon-skype" viewBox="0 0 384 384"><path d="M48.7 177.3A92.3 92.3 0 0 1 124 32a91.4 91.4 0 0 1 53.1 16.8A145.7 145.7 0 0 1 192 48a144 144 0 0 1 144 144 145.7 145.7 0 0 1-.8 15A92 92 0 0 1 207 335.2a145.7 145.7 0 0 1-15 .8A144 144 0 0 1 48 192a145.7 145.7 0 0 1 .7-14.7z"/><path d="M128 232v4c0 24.3 28.7 44 64 44s64-19.7 64-44-28.7-44-64-44-64-19.7-64-44 28.7-44 64-44 64 19.7 64 44v4" fill="none" stroke="#fff" stroke-miterlimit="10" stroke-width="16"/></symbol><symbol id="icon-web-design" viewBox="0 0 60 60"><path d="M18 53.414l-6-6V13c0-2.206 1.794-4 4-4h4c2.206 0 4 1.794 4 4v34.414zm-4-6.828l4 4 4-4V13c0-1.103-.897-2-2-2h-4c-1.103 0-2 .897-2 2z"/><path d="M13 16h7v2h-7zM8 48H6V18c0-2.206 1.794-4 4-4h3v2h-3c-1.103 0-2 .897-2 2zm46 0h-2V18c0-1.103-.897-2-2-2h-2.003v-2H50c2.206 0 4 1.794 4 4z"/><path d="M52 57H8c-3.309 0-6-2.691-6-6v-4h8v2H4v2c0 2.206 1.794 4 4 4h44c2.206 0 4-1.794 4-4v-2H26v-2h32v4c0 3.309-2.691 6-6 6z"/><path d="M27 51h6v2h-6zm19-6H23v-2h23a1 1 0 0 0 1-1V7a1 1 0 0 0-1-1H19a1 1 0 0 0-1 1v3h-2V7c0-1.654 1.346-3 3-3h27c1.654 0 3 1.346 3 3v35c0 1.654-1.346 3-3 3z"/><path d="M45 8h-2v2h2zm-4 0h-2v2h2zM28 24h-2v2h2zm0 4h-2v2h2zm9-20h-2v2h2zm-11 4h22v2H26zm0 8h18v2H26zm6 4h12v2H32zm0 4h12v2H32z"/></symbol><symbol id="icon-workplace" viewBox="0 0 60 60"><path d="M35.5 31a2.21 2.21 0 0 1-1.556-.642l-8.303-8.303C25.228 21.642 25 21.09 25 20.5s.228-1.142.642-1.556l2.772-2.772A4.024 4.024 0 0 1 31.242 15h5.172L41 19.586v5.172a4.024 4.024 0 0 1-1.172 2.828l-2.772 2.772A2.184 2.184 0 0 1 35.5 31zm-4.258-14c-.526 0-1.042.214-1.414.586l-2.772 2.772A.195.195 0 0 0 27 20.5c0 .039.01.096.056.142l8.303 8.303c.051.051.12.055.141.055.086 0 .128-.042.142-.056l2.772-2.772c.372-.372.586-.888.586-1.414v-4.344L35.586 17z"/><path d="M40.707 20.707l-1.414-1.414 2.172-2.172a1.83 1.83 0 0 0-2.586-2.586l-2.172 2.172-1.414-1.414 2.172-2.172A3.802 3.802 0 0 1 40.172 12 3.833 3.833 0 0 1 44 15.828a3.804 3.804 0 0 1-1.121 2.707z"/><path d="M51.484 48.347l-1.875-.694 5.57-15.06-13.886-13.886 1.414-1.414 14.792 14.792z"/><path d="M58 54H44v-4c0-1.654 1.346-3 3-3h8c1.654 0 3 1.346 3 3zm-12-2h10v-2a1 1 0 0 0-1-1h-8a1 1 0 0 0-1 1zm-9-5H5c-1.654 0-3-1.346-3-3V22c0-1.654 1.346-3 3-3h18v2H5a1 1 0 0 0-1 1v22a1 1 0 0 0 1 1h32a1 1 0 0 0 1-1V32h2v12c0 1.654-1.346 3-3 3z"/><path d="M14.65 52.764l1.696-7 1.944.471-1.696 7zm9.062-6.531l1.944-.471 1.695 7-1.944.47z"/><path d="M13 52h16v2H13zM2 56h50v2H2zm52 0h4v2h-4zM15 7h4v2h-4zm8 0h4v2h-4zm-3 3h2v4h-2zm0-8h2v4h-2zm26 8h5v2h-5zm9 0h5v2h-5zm-3 3h2v5h-2zm0-9h2v5h-2zM3 39h36v2H3z"/></symbol></svg>